<svg width="80" height="83" viewBox="0 0 80 83" fill="none" xmlns="http://www.w3.org/2000/svg">
<path d="M64.121 14.8056C65.6477 15.6534 67.4746 15.9637 69.1922 15.6308C71.5874 15.1749 73.6511 13.5125 74.757 11.3628C75.5112 9.91339 75.7436 8.22404 75.4937 6.61444C75.1771 4.48547 73.9016 2.51979 72.0854 1.36425L72.0867 1.31966C70.0896 0.00899303 67.4859 -0.409892 65.23 0.448603C63.7818 0.892608 62.5258 1.86289 61.5794 3.03162C60.1507 4.96653 59.5955 7.56839 60.2775 9.89707C60.8101 11.9752 62.2897 13.7298 64.121 14.8056Z" fill="white"/>
<path d="M53.0622 21.2143C54.5418 21.1019 56.0295 20.9982 57.5135 21.1521C60.4828 21.3876 63.4012 22.2587 65.9986 23.7188C66.2825 23.862 66.5312 24.0931 66.8446 24.1697C69.3754 25.8961 71.62 28.1193 73.0845 30.8323C74.4737 33.2734 75.1852 36.0781 75.2028 38.8828C75.2543 41.1506 74.9145 43.4378 74.056 45.5429C74.9673 44.3239 75.6568 42.9479 76.2836 41.565C78.4584 36.2364 78.4521 29.9085 75.7391 24.7707C74.5528 22.5369 72.8383 20.58 70.7759 19.1142L70.7891 19.0979C67.2597 16.5004 62.8083 15.456 58.4801 15.4629C56.1055 15.4805 53.7404 15.8655 51.4934 16.6348C49.7494 17.2697 47.9979 18.0208 46.529 19.1657C44.7391 20.2917 43.2476 21.8775 42.0864 23.6359C41.459 24.642 40.863 25.7159 40.6809 26.9022C42.4029 25.3994 44.2769 24.0592 46.3632 23.1046C48.4714 22.0985 50.7567 21.5364 53.0616 21.2143H53.0622Z" fill="white"/>
<path d="M78.8195 34.8268C78.6481 37.4632 78.1111 40.0858 77.1063 42.5338C76.9995 42.8176 76.8149 43.0858 76.7766 43.3885C75.3372 46.3119 73.3621 48.9715 70.96 51.174L70.9926 51.211C69.1199 52.8696 67.0964 54.3605 64.9291 55.6103L64.9279 55.631C62.4843 56.9994 59.9352 58.2008 57.2441 59.0009L57.241 59.0273C56.3015 59.2063 55.3325 59.7018 54.371 59.4531L54.2762 59.3005C54.4539 58.8062 54.955 58.5255 55.3055 58.1588C56.7034 56.7872 58.2521 55.5657 59.5125 54.061C60.1474 53.3124 60.582 52.2856 60.3057 51.3021C60.1029 50.595 59.3781 50.144 58.6622 50.1541C57.3603 50.1258 56.1282 50.6408 54.9563 51.1526C52.1616 52.4796 49.5541 54.2739 47.4176 56.509C45.6378 58.2103 44.0584 60.1332 42.7961 62.2503C42.2353 63.1954 41.682 64.1588 41.351 65.212C40.3405 68.3068 40.2162 71.6309 40.5949 74.8451C40.9334 77.582 42.0563 80.3289 44.1482 82.1884C44.6851 81.3569 45.2265 80.5242 45.8759 79.7756C46.6986 78.8449 47.6111 77.999 48.5298 77.165L48.5801 77.1706C50.7505 75.333 53.1897 73.8509 55.6289 72.4027H55.6735C59.1244 70.4352 62.6111 68.5003 65.7977 66.1157C67.715 64.7089 69.508 63.1289 71.1364 61.3955C73.7326 58.6543 75.9545 55.5242 77.4869 52.0658C78.7203 49.4639 79.5474 46.6561 79.857 43.7892C80.1955 40.7816 79.9638 37.6472 78.8183 34.8262L78.8195 34.8268Z" fill="white"/>
<path d="M11.0515 15.609L10.973 15.6579C11.6694 15.7465 12.3722 15.7572 13.0737 15.7258C13.8681 15.5707 14.6801 15.4149 15.3992 15.0218L15.4419 15.0249C16.0781 14.7203 16.664 14.3234 17.2154 13.8876V13.88C19.1045 12.3728 20.1162 9.911 20.0069 7.5145C19.9774 5.32964 18.8841 3.23207 17.2317 1.83098C16.3871 1.12383 15.3942 0.612001 14.3473 0.28669C14.0779 0.221377 13.8103 0.159202 13.5409 0.0989129L13.48 0.118381C12.5688 -0.0549505 11.6205 -0.0204089 10.7123 0.158575C9.04246 0.506494 7.48625 1.41272 6.37529 2.71019C3.75962 5.63925 3.92541 10.5729 6.7364 13.3111C7.89759 14.4785 9.39478 15.4262 11.0515 15.6096V15.609Z" fill="white"/>
<path d="M5.99974 45.561C5.15946 43.8541 4.83854 41.9518 4.72613 40.0672C4.56473 36.4668 5.54129 32.813 7.55721 29.8186L7.48939 29.7489L7.57103 29.8287C9.19946 27.1715 11.6123 25.0432 14.3253 23.5385C16.4806 22.3478 18.8577 21.5665 21.3019 21.2544C23.9333 20.9065 26.6243 21.0785 29.2149 21.6331C30.9664 22.0105 32.6601 22.6272 34.2697 23.4085C35.5936 24.0742 36.8603 24.8674 37.9913 25.8288C38.441 26.1661 38.799 26.6145 39.2681 26.9279C39.3793 26.5021 39.145 26.08 39.0257 25.6794C38.1854 23.6678 36.8006 21.9025 35.1559 20.4857C33.4414 19.0048 31.4751 17.7739 29.3304 17.0329L29.3097 16.9883C26.412 15.8447 23.2682 15.3416 20.1589 15.4603C17.8321 15.5577 15.521 16.0149 13.3456 16.8464C11.3749 17.5843 9.53922 18.6864 7.98301 20.102L7.97735 20.1271C6.38722 21.4302 5.13685 23.1139 4.19483 24.9333C2.69011 27.7455 2.03823 30.9735 2.15191 34.1475C2.30577 38.2082 3.54232 42.2972 6.001 45.5604L5.99974 45.561Z" fill="white"/>
<path d="M39.0118 66.2547C38.6759 64.7801 37.9229 63.4532 37.1347 62.1795C35.1257 59.0005 32.5565 56.1695 29.5565 53.8967C27.7905 52.5917 25.9159 51.3865 23.8303 50.663C22.9988 50.3968 22.1353 50.1204 21.2516 50.1958C20.5991 50.2429 19.929 50.6542 19.7633 51.3187C19.4555 52.4133 20.0829 53.4816 20.7543 54.3011C22.1164 55.8988 23.7467 57.2358 25.2496 58.6947C25.4757 58.9346 25.779 59.1575 25.8085 59.5143C25.6992 59.5293 25.4801 59.5588 25.3708 59.572C24.5763 59.5205 23.8058 59.3089 23.0421 59.0985C21.5167 58.6708 20.0226 58.1314 18.5832 57.4713L18.5681 57.477C15.9041 56.2228 13.3267 54.7445 11.0194 52.9057C8.73409 51.1259 6.70121 49.0164 5.10355 46.5966C2.65806 43.1382 1.34928 38.943 1.17909 34.7266C0.513399 36.431 0.0963993 38.234 0.0166417 40.064C-0.065 42.404 0.149781 44.7635 0.748905 47.0312C1.46044 49.7518 2.57705 52.3599 3.96621 54.8004L4.00766 54.8035C5.61852 57.715 7.76192 60.3181 10.1528 62.6229L10.1955 62.638C12.1153 64.5402 14.2738 66.1944 16.5133 67.7004L16.5101 67.7105C18.8752 69.2503 21.3195 70.6571 23.775 72.0463C25.0989 72.7886 26.4114 73.5566 27.6699 74.4089C28.6628 75.0463 29.6344 75.7227 30.5469 76.4725C32.5998 78.0878 34.5693 79.9146 35.8705 82.2094C37.5084 80.7273 38.4875 78.641 39.0301 76.529C39.8691 73.171 39.7874 69.6177 39.0093 66.2553L39.0118 66.2547Z" fill="white"/>
<path d="M35.608 39.9071C36.6674 41.0256 38.1715 41.7861 39.7309 41.7874C41.3342 41.8345 42.9601 41.231 44.1182 40.1175C44.7098 39.563 45.2028 38.8941 45.5312 38.1518C46.028 37.017 46.1793 35.7214 45.9275 34.5068C45.8967 34.1118 45.7322 33.7419 45.621 33.3663C45.3648 32.7063 44.9597 32.1191 44.5044 31.584C43.1065 30.0485 40.9141 29.2233 38.858 29.6447C37.4405 29.8815 36.1393 30.6784 35.2337 31.7881C34.8355 32.2661 34.5266 32.8062 34.2722 33.3707C34.173 33.696 34.0235 34.0126 33.9927 34.3561C33.6969 35.6102 33.793 36.9831 34.367 38.1493C34.6735 38.7974 35.0729 39.4292 35.608 39.9084V39.9071Z" fill="white"/>
<path d="M29.846 43.5723C30.5324 44.4157 31.2471 45.2334 31.9172 46.0888L31.9247 46.09C32.7618 47.1344 33.5356 48.2278 34.2873 49.3344C35.2915 50.8479 36.209 52.4261 36.9394 54.0916L36.9526 54.0765C37.259 54.8263 37.5517 55.5812 37.8192 56.3455L37.8368 56.3543C38.6444 58.7125 39.1148 61.1649 39.6235 63.5997C39.7447 63.9796 39.7466 64.4431 40.0361 64.7464C40.4267 63.7586 40.5448 62.696 40.7508 61.6623C41.0673 59.8297 41.4931 58.0129 42.1086 56.2569C42.437 55.4273 42.7416 54.5871 43.1058 53.7719L43.1178 53.7706C43.7985 52.21 44.6752 50.7442 45.6116 49.3256C46.3319 48.2504 47.0862 47.1966 47.8988 46.1893C48.9759 44.7825 50.1383 43.4436 51.3058 42.1109C52.2422 41.0534 53.1478 39.9675 54.0339 38.8666C54.611 38.1256 55.1021 37.3192 55.5223 36.4808L55.5399 36.4839C55.8652 35.6405 56.3519 34.6614 55.9349 33.7697C55.6805 33.6158 55.4036 33.7935 55.2541 34.0052C54.6845 34.7092 54.0823 35.3868 53.4819 36.0657C52.9091 36.6692 52.3131 37.2489 51.7021 37.8141C50.4429 38.9665 49.1209 40.0511 47.723 41.0301C45.8264 42.354 43.6685 43.3908 41.3606 43.7136C39.2674 44.0452 37.1385 43.5937 35.2111 42.7685L35.201 42.7477C33.4395 41.9564 31.8625 40.8292 30.3358 39.6592C29.4189 38.8911 28.546 38.0703 27.6586 37.2671C26.7028 36.2729 25.6954 35.3202 24.8627 34.2168C24.6793 33.9669 24.462 33.7433 24.1882 33.5957C23.9232 33.911 23.7769 34.3129 23.8497 34.7274C23.9948 35.952 24.6693 37.0291 25.3142 38.0515C25.8807 38.8961 26.5156 39.6906 27.1769 40.4611L27.1826 40.4624C28.0524 41.5124 28.9668 42.5292 29.8391 43.578L29.8466 43.5736L29.846 43.5723Z" fill="white"/>
</svg>
