<svg width="24" height="24" viewBox="0 0 24 24" fill="none" xmlns="http://www.w3.org/2000/svg">
<g clip-path="url(#clip0_181_3346)">
<path d="M18.7338 23.039C17.4273 24.3056 16.0009 24.1056 14.6277 23.5057C13.1745 22.8924 11.8414 22.8657 10.3082 23.5057C8.38848 24.3322 7.37528 24.0922 6.22876 23.039C-0.277087 16.3332 0.682792 6.12118 8.06853 5.74789C9.8683 5.84122 11.1215 6.73444 12.1747 6.81443C13.7478 6.49447 15.2543 5.57458 16.9341 5.69457C18.9472 5.85455 20.467 6.65445 21.4668 8.09426C17.3074 10.5873 18.2939 16.0666 22.1068 17.5997C21.3468 19.5995 20.3603 21.5859 18.7205 23.0524L18.7338 23.039ZM12.0414 5.6679C11.8414 2.69495 14.2544 0.241923 17.0274 0.00195312C17.414 3.44152 13.9078 6.0012 12.0414 5.6679Z" fill="black"/>
</g>
<defs>
<clipPath id="clip0_181_3346">
<rect width="24" height="24" fill="white"/>
</clipPath>
</defs>
</svg>
