<svg width="14" height="14" viewBox="0 0 14 14" fill="none" xmlns="http://www.w3.org/2000/svg">
<path d="M10.9375 1.76411C10.6024 1.76411 10.2743 1.89405 10.0214 2.14692L5.6875 6.46723L5.59169 6.56305L5.56456 6.69998L5.26356 8.23123L5.12706 8.87348L5.76975 8.73698L7.301 8.43598L7.4375 8.40886L7.53331 8.31305L11.8536 3.97917C12.0347 3.79764 12.158 3.56656 12.2079 3.31506C12.2578 3.06357 12.2322 2.80292 12.1342 2.56598C12.0363 2.32903 11.8703 2.1264 11.6573 1.98362C11.4444 1.84084 11.1939 1.76475 10.9375 1.76411ZM10.9375 2.61198C11.0399 2.61198 11.1409 2.66448 11.2385 2.76205C11.4332 2.95717 11.4332 3.16892 11.2385 3.36361L7 7.60255L6.24794 7.75305L6.39844 7.00098L10.6369 2.76248C10.7341 2.66536 10.8351 2.61198 10.9375 2.61198ZM1.75 3.50055V12.2505H10.5V6.4808L9.625 7.3558V11.3755H2.625V4.37555H6.64475L7.51975 3.50055H1.75Z" fill="#E55F68"/>
</svg>
