<svg width="20" height="20" viewBox="0 0 20 20" fill="none" xmlns="http://www.w3.org/2000/svg">
<path d="M16.6666 18.334V14.1673C16.6666 12.596 16.6666 11.8103 16.1784 11.3222C15.6903 10.834 14.9046 10.834 13.3333 10.834L9.99992 18.334L6.66659 10.834C5.09524 10.834 4.30956 10.834 3.82141 11.3222C3.33325 11.8103 3.33325 12.596 3.33325 14.1673V18.334" stroke="#202020" stroke-width="1.25" stroke-linecap="round" stroke-linejoin="round"/>
<path d="M10.0001 12.5007L9.58341 15.834L10.0001 17.084L10.4167 15.834L10.0001 12.5007ZM10.0001 12.5007L9.16675 10.834H10.8334L10.0001 12.5007Z" stroke="#202020" stroke-width="1.25" stroke-linecap="round" stroke-linejoin="round"/>
<path d="M12.9166 5.41602V4.58268C12.9166 2.97186 11.6108 1.66602 9.99992 1.66602C8.38909 1.66602 7.08325 2.97186 7.08325 4.58268V5.41602C7.08325 7.02685 8.38909 8.33267 9.99992 8.33267C11.6108 8.33267 12.9166 7.02685 12.9166 5.41602Z" stroke="#202020" stroke-width="1.25" stroke-linecap="round" stroke-linejoin="round"/>
</svg>
