<svg width="24" height="24" viewBox="0 0 24 24" fill="none" xmlns="http://www.w3.org/2000/svg">
<path opacity="0.987" fill-rule="evenodd" clip-rule="evenodd" d="M10.8134 1.59112C11.9009 1.46962 12.5444 1.46962 13.7129 1.59112C15.7813 1.89727 17.6987 2.85335 19.1879 4.32113C18.1816 5.27233 17.1885 6.23742 16.2089 7.21612C14.3329 5.62612 12.2389 5.25912 9.92687 6.11513C8.23087 6.89512 7.04987 8.15913 6.38387 9.90713C5.29554 9.09687 4.22137 8.26774 3.16188 7.42013C3.08824 7.38137 3.00415 7.36718 2.92188 7.37962C4.60487 4.13462 7.23488 2.20462 10.8119 1.58962" fill="#F44336"/>
<path opacity="0.997" fill-rule="evenodd" clip-rule="evenodd" d="M2.91889 7.37978C3.00389 7.36678 3.08439 7.38028 3.16039 7.42028C4.21989 8.2679 5.29405 9.09703 6.38239 9.90728C6.21113 10.5884 6.10317 11.2838 6.05989 11.9848C6.09689 12.6628 6.20439 13.3283 6.38239 13.9813L2.99989 16.6738C1.52689 13.5958 1.49989 10.4978 2.91889 7.37978Z" fill="#FFC107"/>
<path opacity="0.999" fill-rule="evenodd" clip-rule="evenodd" d="M19.0271 19.9341C17.9739 19.0053 16.8713 18.134 15.7241 17.3241C16.8741 16.5121 17.5721 15.3981 17.8181 13.9821H12.1826V10.0686C15.4326 10.0416 18.6811 10.0691 21.9281 10.1511C22.5441 13.4961 21.8326 16.5121 19.7936 19.1991C19.5512 19.4569 19.2943 19.7022 19.0271 19.9341Z" fill="#448AFF"/>
<path opacity="0.993" fill-rule="evenodd" clip-rule="evenodd" d="M6.38274 13.9824C7.61274 17.0394 9.86774 18.4664 13.1477 18.2634C14.0685 18.1568 14.9513 17.8352 15.7247 17.3244C16.8727 18.1364 17.9737 19.0064 19.0277 19.9344C17.3577 21.4351 15.2284 22.3255 12.9872 22.4604C12.4781 22.5011 11.9664 22.5011 11.4572 22.4604C7.63924 22.0104 4.82024 20.0814 3.00024 16.6734L6.38274 13.9824Z" fill="#43A047"/>
</svg>
