<svg width="20" height="20" viewBox="0 0 20 20" fill="none" xmlns="http://www.w3.org/2000/svg">
<path d="M9.99997 1.66602C13.9121 1.66602 17.0833 4.83727 17.0833 8.74935C17.086 10.4249 16.4923 12.0467 15.4083 13.3243L15.4075 13.3248L15.4008 13.3327H15.4166L11.2129 17.7948C11.0571 17.9601 10.8691 18.0918 10.6605 18.1819C10.4519 18.2719 10.2272 18.3184 9.99997 18.3184C9.77279 18.3184 9.548 18.2719 9.33942 18.1819C9.13084 18.0918 8.94287 17.9601 8.78706 17.7948L4.58331 13.3327H4.59914L4.59164 13.3243L4.58331 13.3139C4.3139 12.9948 4.07324 12.6525 3.86414 12.291C3.24113 11.2148 2.91422 9.99286 2.91664 8.74935C2.91664 4.83727 6.08789 1.66602 9.99997 1.66602ZM9.99997 6.24935C9.33693 6.24935 8.70105 6.51274 8.2322 6.98158C7.76336 7.45042 7.49997 8.08631 7.49997 8.74935C7.49997 9.41239 7.76336 10.0483 8.2322 10.5171C8.70105 10.986 9.33693 11.2493 9.99997 11.2493C10.663 11.2493 11.2989 10.986 11.7677 10.5171C12.2366 10.0483 12.5 9.41239 12.5 8.74935C12.5 8.08631 12.2366 7.45042 11.7677 6.98158C11.2989 6.51274 10.663 6.24935 9.99997 6.24935Z" fill="black"/>
</svg>
