<svg width="24" height="24" viewBox="0 0 24 24" fill="none" xmlns="http://www.w3.org/2000/svg">
<path d="M12.0002 9.5C13.5285 9.50002 14.4515 9.7747 15.7737 10.4453C16.3735 10.7644 16.7195 11.1031 16.9573 11.4551C17.2047 11.8214 17.3508 12.2238 17.5286 12.7266L17.5305 12.7324L19.5129 18.125C19.522 18.1966 19.5011 18.332 19.3206 18.5557C19.1296 18.7922 18.8197 19.0528 18.4172 19.3223C17.6169 19.8582 16.5614 20.3586 15.6936 20.7305L15.6907 20.7314C14.5352 21.2334 13.3063 21.4977 12.01 21.499L11.5002 21.4688V19.8623L11.9504 19.9072L11.9749 19.9102H12.0002C13.1576 19.9101 14.3536 19.6809 15.5852 19.2402C15.8292 19.1529 16.0311 18.9707 16.135 18.7354C16.2429 18.4906 16.2415 18.188 16.0686 17.9258C15.9645 17.768 15.8373 17.6239 15.6917 17.4902C16.1518 17.446 16.5847 17.2437 16.9143 16.9141C17.2893 16.539 17.5002 16.0304 17.5002 15.5C17.5002 14.9696 17.2893 14.461 16.9143 14.0859C16.5393 13.7109 16.0306 13.5 15.5002 13.5C14.9698 13.5 14.4612 13.7109 14.0862 14.0859C13.7111 14.461 13.5002 14.9696 13.5002 15.5C13.5002 15.7621 13.5514 16.0189 13.6487 16.2568C13.2025 15.8095 12.8988 15.257 12.7288 14.8789C12.5432 14.4666 12.1006 14.2093 11.6311 14.3193L11.5364 14.3467L10.6506 14.6465C10.1426 14.8187 9.82338 15.3921 10.051 15.9385C10.1228 16.1105 10.2168 16.3173 10.3362 16.5439C9.55346 16.7504 8.91175 17.0245 8.44653 17.3896C7.91682 17.8055 7.60962 18.3467 7.60962 19V20.4307C6.76834 20.0654 5.89135 19.6572 5.26196 19.208C4.94694 18.9832 4.72523 18.7695 4.5979 18.5742C4.48171 18.396 4.45863 18.2563 4.48462 18.1299L6.46899 12.7324L6.47192 12.7266C6.64969 12.2237 6.79579 11.8214 7.04321 11.4551C7.28081 11.1033 7.6266 10.7652 8.22583 10.4463C9.54856 9.77534 10.4621 9.5 12.0002 9.5ZM12.0002 2.5C12.6632 2.50004 13.299 2.76361 13.7678 3.23242C14.2366 3.70126 14.5002 4.33699 14.5002 5C14.5002 5.66301 14.2366 6.29874 13.7678 6.76758C13.299 7.23639 12.6632 7.49996 12.0002 7.5C11.3372 7.5 10.7015 7.23638 10.2327 6.76758C9.76383 6.29874 9.50024 5.66304 9.50024 5C9.50024 4.33696 9.76383 3.70126 10.2327 3.23242C10.7015 2.76362 11.3372 2.5 12.0002 2.5Z" stroke="#FFFEFE"/>
</svg>
