<svg width="175" height="175" viewBox="0 0 175 175" fill="none" xmlns="http://www.w3.org/2000/svg">
<rect width="175" height="175" rx="87.5" fill="#FEECE6" fill-opacity="0.6"/>
<circle cx="87.5" cy="87.5009" r="59.6338" fill="#FAB0B0" fill-opacity="0.4"/>
<path d="M88.0576 64.6504C94.2653 64.6504 100.219 67.1164 104.608 71.5059C108.998 75.8954 111.464 81.8489 111.464 88.0566C111.464 94.2644 108.998 100.218 104.608 104.607C100.219 108.997 94.2653 111.463 88.0576 111.463C81.8499 111.463 75.8964 108.997 71.5069 104.607C67.1174 100.218 64.6514 94.2644 64.6514 88.0566C64.6514 81.8489 67.1174 75.8954 71.5069 71.5059C75.8964 67.1164 81.8499 64.6504 88.0576 64.6504ZM85.1423 92.6752L79.9438 87.4715C79.5676 87.0946 79.0571 86.8826 78.5246 86.8821C77.992 86.8816 77.4811 87.0927 77.1042 87.4689C76.7273 87.8451 76.5153 88.3556 76.5148 88.8881C76.5143 89.4206 76.7254 89.9315 77.1016 90.3084L83.7264 96.9385C83.9124 97.1254 84.1334 97.2736 84.3768 97.3748C84.6203 97.476 84.8813 97.5281 85.1449 97.5281C85.4085 97.5281 85.6695 97.476 85.913 97.3748C86.1564 97.2736 86.3774 97.1254 86.5634 96.9385L100.273 83.2239C100.464 83.0386 100.616 82.8173 100.72 82.5727C100.824 82.3281 100.879 82.0652 100.881 81.7993C100.883 81.5334 100.832 81.2697 100.731 81.0237C100.63 80.7776 100.482 80.5541 100.294 80.366C100.106 80.178 99.882 80.0292 99.636 79.9283C99.3899 79.8275 99.1263 79.7765 98.8603 79.7785C98.5944 79.7804 98.3315 79.8352 98.087 79.9397C97.8424 80.0441 97.6211 80.1961 97.4358 80.3869L85.1423 92.6752Z" fill="#D83A51"/>
</svg>
