<svg width="333" height="258" viewBox="0 0 333 258" fill="none" xmlns="http://www.w3.org/2000/svg">
<path d="M238.142 228.954C266.412 231.023 301.75 219.396 317.339 193.893C323.797 183.334 328.084 169.782 323.587 158.104C320.183 149.259 305.784 139.259 302.679 130.286C299.527 121.19 299.973 110.939 301.59 101.375C306.241 73.8862 280.39 30.9818 225.807 26.4028C184.417 22.9327 165.696 56.3096 130.471 60.8629C94.9224 65.4624 53.2448 37.8758 27.8143 60.8629C-3.76082 89.4094 11.054 117.987 14.8988 131.354C19.8371 148.53 -4.29469 168.134 0.679511 193.416C11.8086 249.954 92.6842 211.829 116.385 209.442C140.46 207.019 164.351 214.129 187.943 219.832C211.536 225.54 238.137 228.954 238.137 228.954H238.142Z" fill="#DAF3F7"/>
<path d="M14.5756 68.8963L13.8262 68.6397C13.9032 68.4241 22.0138 46.9154 45.3346 46.4277L45.35 47.1977C22.5682 47.6751 14.6475 68.6859 14.5705 68.8963H14.5756Z" fill="#DAF3F7"/>
<path d="M330.989 178.246L330.229 178.03C337.088 155.064 316.133 138.878 315.923 138.719L316.411 138.113C316.626 138.278 338.001 154.781 330.994 178.246H330.989Z" fill="#DAF3F7"/>
<path d="M91.5497 67.8384C91.5292 68.0232 91.5138 68.208 91.4933 68.3928C89.2192 91.2464 90.3229 109.259 93.3259 123.443L104.614 131.605L95.0147 129.423L94.7427 129.361C98.9366 145.013 105.528 155.398 111.96 162.23C115.959 166.491 119.901 169.371 123.171 171.285C123.387 171.414 123.597 171.537 123.808 171.655C124.336 171.953 124.845 172.225 125.332 172.476L131.8 173.272C131.908 172.974 132.016 172.682 132.118 172.389C132.185 172.204 132.252 172.019 132.314 171.829C132.401 171.588 132.483 171.337 132.565 171.095C142.303 142.072 134.28 117.817 122.827 100.127C122.796 100.065 122.76 100.014 122.714 99.9525C118.726 93.8131 114.326 88.4641 110.122 83.9879L106.744 91.0924L107.047 80.8257C99.6861 73.5159 93.4491 69.1166 91.9142 68.0694C91.6781 67.9051 91.5497 67.8281 91.5497 67.8281V67.8384Z" fill="#6E8C54"/>
<path d="M92.2745 67.9343L91.5552 68.209L131.207 172.048L131.927 171.773L92.2745 67.9343Z" fill="#5E3B3B"/>
<path d="M65.3286 136.147C65.4107 136.255 65.4929 136.357 65.575 136.465C75.6261 149.54 85.0663 158.421 93.6184 164.37L103.541 163.087L97.4479 166.67L97.2733 166.772C107.17 172.897 115.728 175.094 122.452 175.499C126.641 175.761 130.122 175.33 132.775 174.724C132.95 174.683 133.125 174.647 133.289 174.601C133.71 174.498 134.115 174.39 134.49 174.277L138.263 171.511C138.176 171.3 138.088 171.095 137.991 170.889C137.934 170.756 137.878 170.628 137.816 170.504C137.745 170.335 137.662 170.16 137.585 169.996C128.402 150.022 112.278 141.275 97.5813 137.656C97.5351 137.641 97.4889 137.631 97.4376 137.62C92.3299 136.368 87.3968 135.736 82.9975 135.464L84.7223 140.844L79.8303 135.326C72.3818 135.12 66.9559 135.885 65.6417 136.096C65.4364 136.126 65.3337 136.147 65.3337 136.147H65.3286Z" fill="#ACCE8B"/>
<path d="M65.8184 135.764L65.4707 136.451L138.664 173.488L139.012 172.801L65.8184 135.764Z" fill="#5E3B3B"/>
<path d="M287.089 0.0175781C287.089 0.171578 287.089 0.320444 287.089 0.474444C287.037 19.2265 284.64 33.7744 281.021 45.0472L271.17 50.74L279.153 49.7647L279.378 49.739C274.666 62.1052 268.45 69.9952 262.659 75.0104C259.056 78.1366 255.611 80.154 252.798 81.4374C252.613 81.5246 252.428 81.6068 252.249 81.6838C251.797 81.884 251.356 82.0636 250.94 82.2228L245.622 82.3306C245.555 82.079 245.493 81.8326 245.437 81.5862C245.396 81.4322 245.36 81.2731 245.324 81.1191C245.273 80.9138 245.226 80.7033 245.18 80.498C239.682 56.1095 248.214 37.07 258.989 23.6514C259.02 23.6052 259.056 23.5642 259.097 23.518C262.844 18.862 266.868 14.8837 270.657 11.5984L272.813 17.6506L273.419 9.28838C280.005 3.95998 285.436 0.905646 286.77 0.186979C286.976 0.0740457 287.083 0.0175781 287.083 0.0175781H287.089Z" fill="#6E8C54"/>
<path d="M286.411 -0.00014139L245.583 81.0723L246.271 81.4186L287.099 0.346194L286.411 -0.00014139Z" fill="#5E3B3B"/>
<path d="M134.588 255.94H246.612C250.257 255.94 253.209 253.076 253.209 249.544V27.1422C253.209 23.6105 250.252 20.7461 246.612 20.7461H134.588C130.943 20.7461 127.991 23.6105 127.991 27.1422V249.544C127.991 253.076 130.948 255.94 134.588 255.94Z" fill="#5E3B3B"/>
<path d="M251.309 43.1209V59.794C251.309 60.4716 250.755 61.0362 250.072 61.0362H249.969V250.04C249.969 253.582 247.013 256.452 243.368 256.452H131.343C127.699 256.452 124.742 253.582 124.742 250.04V105.501H124.583C123.905 105.501 123.351 104.942 123.351 104.259V87.5858C123.351 86.9082 123.905 86.3487 124.583 86.3487H124.742V80.584H124.583C123.905 80.584 123.351 80.0296 123.351 79.3417V62.6738C123.351 61.991 123.905 61.4315 124.583 61.4315H124.742V27.1049C124.742 23.5629 127.699 20.6934 131.343 20.6934H243.368C247.013 20.6934 249.969 23.5629 249.969 27.1049V41.8786H250.072C250.755 41.8786 251.309 42.433 251.309 43.1158V43.1209Z" fill="#8ECBD8"/>
<path d="M131.343 20.7461H178.76V21.7728H131.343C127.986 21.7728 125.255 24.4113 125.255 27.6556V62.4134H124.583C124.187 62.4134 123.864 62.7368 123.864 63.1372V79.764C123.864 80.1644 124.187 80.4878 124.583 80.4878H125.255V87.269H124.583C124.187 87.269 123.864 87.5924 123.864 87.9876V104.62C123.864 105.015 124.193 105.343 124.583 105.343H125.255V155.327H124.229V106.334C123.438 106.17 122.837 105.462 122.837 104.62V87.9876C122.837 87.1458 123.438 86.4425 124.229 86.2782V81.4786C123.438 81.3143 122.837 80.6059 122.837 79.764V63.1372C122.837 62.2953 123.438 61.5869 124.229 61.4226V27.6556C124.229 23.8466 127.421 20.7461 131.343 20.7461Z" fill="#5E3B3B"/>
<path d="M251.823 43.6254V60.2574C251.823 61.0838 251.248 61.7768 250.478 61.9616V133.125H249.451V60.9812H250.072C250.467 60.9812 250.796 60.6578 250.796 60.2574V43.6254C250.796 43.2301 250.467 42.9067 250.072 42.9067H249.451V27.6556C249.451 24.4113 246.72 21.7728 243.368 21.7728H237.449V20.7461H243.368C247.29 20.7461 250.478 23.8466 250.478 27.6556V41.9262C251.248 42.111 251.823 42.804 251.823 43.6254Z" fill="#5E3B3B"/>
<path d="M243.363 256.961H131.338C127.417 256.961 124.224 253.861 124.224 250.052V209.57H125.25V250.052C125.25 253.296 127.981 255.934 131.338 255.934H243.363C246.72 255.934 249.451 253.296 249.451 250.052V165.449H250.478V250.052C250.478 253.861 247.285 256.961 243.363 256.961Z" fill="#5E3B3B"/>
<path d="M245.201 31.5611V244.045C245.201 247.418 242.465 250.154 239.092 250.154H135.353C131.975 250.154 129.239 247.418 129.239 244.04V31.5559C129.239 28.1833 131.975 25.4473 135.347 25.4473H165.634C166.604 25.4473 167.39 26.2327 167.39 27.208V30.0621C167.39 31.3301 168.422 32.3619 169.684 32.3619H204.75C206.018 32.3619 207.05 31.3249 207.05 30.0621V27.208C207.05 26.2378 207.83 25.4473 208.805 25.4473H239.087C242.465 25.4473 245.201 28.1833 245.201 31.5611Z" fill="white"/>
<path d="M172.523 27.738C173.107 27.738 173.58 27.2645 173.58 26.6805C173.58 26.0965 173.107 25.623 172.523 25.623C171.939 25.623 171.465 26.0965 171.465 26.6805C171.465 27.2645 171.939 27.738 172.523 27.738Z" fill="#5E3B3B"/>
<path d="M203.241 27.2641H178.986C178.663 27.2641 178.401 27.0023 178.401 26.6789C178.401 26.3555 178.663 26.0938 178.986 26.0938H203.241C203.564 26.0938 203.826 26.3555 203.826 26.6789C203.826 27.0023 203.564 27.2641 203.241 27.2641Z" fill="#5E3B3B"/>
<path d="M84.825 79.7313L88.6524 81.0082C89.0955 81.156 89.3307 81.635 89.1845 82.0732L84.9005 94.914C84.7527 95.3572 84.2737 95.5924 83.8355 95.4462L80.0081 94.1693C79.5649 94.0215 79.3297 93.5425 79.4759 93.1043L83.7599 80.2634C83.9078 79.8203 84.3867 79.5851 84.825 79.7313Z" fill="#5E3B3B"/>
<path d="M86.0983 100.737C86.0418 99.726 85.9546 98.7455 86.319 97.7959C86.8375 96.4407 88.09 92.7087 88.1927 91.6307C88.2646 90.871 85.5747 86.8619 84.933 87.1647C84.2606 87.483 86.5705 90.7786 86.3601 90.8761C86.2985 90.9069 83.891 87.8218 83.316 88.3557C82.7616 88.869 85.5798 91.6667 85.4104 91.7847C85.3539 91.8258 84.4351 90.8813 83.8037 90.5733C83.429 90.3936 81.9146 90.3166 81.853 90.64C81.7401 91.2201 83.0491 91.3125 83.5265 91.5281C83.6856 91.5999 84.4197 92.6112 84.4197 92.6112C84.2503 92.7241 83.5111 91.9952 82.8335 91.8463C82.4074 91.7488 80.9701 91.8566 80.9444 92.2878C80.9136 92.7601 82.4998 92.6677 82.5306 92.6882C82.8489 92.8987 83.5419 93.5352 83.5419 93.5352C83.5419 93.5352 81.8838 95.3421 81.5091 95.9838C80.7083 97.3595 81.8222 98.4375 81.8222 98.4375L79.7021 104.921L86.4782 107.79C86.355 105.111 86.1907 102.647 86.0932 100.748L86.0983 100.737Z" fill="#FFB284"/>
<path d="M58.8194 73.3621C58.8194 73.3621 64.4096 63.5523 56.0885 62.4486C56.0885 62.4486 54.8719 56.2322 44.7592 61.9969C44.7592 61.9969 36.2276 60.1489 39.9236 74.3015C39.4616 77.3302 39.246 80.9132 42.6545 80.9338L58.8143 73.3621H58.8194Z" fill="#7C4542"/>
<path d="M41.3203 88.6073L43.3172 76.3438L52.398 81.3795L53.3374 88.8434L57.6751 90.445C54.7748 94.3566 43.6252 95.1574 38.5894 89.4594L41.3203 88.6073Z" fill="#FFB284"/>
<path d="M43.8663 74.4359C43.8663 74.4359 42.7934 68.317 46.3046 66.2226C49.8158 64.1282 56.8433 63.8972 58.3577 68.6763C59.2149 71.3867 58.7221 78.7069 58.1523 81.6431C57.639 84.2817 55.6678 86.2939 53.0549 86.3401C46.8487 86.4479 44.1999 78.6401 44.1999 78.6401L43.8714 74.4359H43.8663Z" fill="#FFB284"/>
<path d="M63.7062 249.263L72.2607 248.348L70.9981 236.552L62.4435 237.468L63.7062 249.263Z" fill="#FFB284"/>
<path d="M16.6084 248.091L25.1092 249.441L27.7375 237.721L19.2418 236.371L16.6084 248.091Z" fill="#FFB284"/>
<path d="M57.5722 242.284C57.5722 242.284 67.6181 244.45 79.4299 242.284C79.1271 233.763 73.7679 178.492 66.7044 139.094L38.7534 139.946L57.5722 242.284Z" fill="#724E4E"/>
<path d="M46.7153 183.216L57.5775 242.285C57.5775 242.285 58.7838 242.573 60.8936 242.835L47.6342 179.109L46.7153 183.216Z" fill="#5E3E3E"/>
<path d="M55.0773 139.094H27.0852C24.0719 157.805 23.0042 176.993 23.8255 196.654C16.8955 219.631 14.5239 242.284 14.5239 242.284C24.2259 244.45 34.9905 242.284 34.9905 242.284C34.9905 242.284 45.3085 207.321 47.9676 196.079C51.3248 181.895 55.0773 139.094 55.0773 139.094Z" fill="#724E4E"/>
<path d="M14.5293 242.285C15.6022 242.521 16.675 242.711 17.7325 242.849C19.0826 224.405 27.3934 195.92 27.3934 195.92C26.6183 176.265 29.3338 153.001 29.3338 153.001L26.567 142.482C23.9541 160.115 23.0609 178.18 23.8309 196.654C16.9009 219.626 14.5293 242.285 14.5293 242.285Z" fill="#5E3E3E"/>
<path d="M40.4678 88.6074C40.4678 88.6074 54.9797 95.3578 55.8472 89.3261L60.2568 90.8712L62.3871 144.376C55.5752 146.83 45.673 146.188 35.088 144.874L34.1846 95.2756L36.4432 89.6649L40.4678 88.6074Z" fill="white"/>
<path d="M25.3092 152.179C47.1977 157.102 62.0587 152.965 67.6746 150.829C69.1786 150.259 70.1488 148.796 70.0975 147.19L69.6509 132.996C69.6509 132.996 69.6817 133.022 69.7074 133.042C69.7074 133.047 69.7074 133.047 69.7074 133.047C70.2618 133.427 74.1374 135.901 79.6968 134.274C80.1948 134.13 80.667 133.956 81.1136 133.756C81.129 133.745 81.1444 133.74 81.1598 133.73C92.0887 128.802 89.2346 108.212 88.6904 102.263L78.3981 101.174L75.8314 111.924C75.8314 111.924 73.9578 105.497 71.4014 99.7474C69.1838 94.7629 65.9292 92.6942 60.2466 90.877C60.2466 90.877 56.797 99.7063 38.8766 91.1798L37.1877 92.8892L27.7886 102.427C24.2055 117.622 21.2076 133.109 25.2989 152.179H25.3092Z" fill="#BE475A"/>
<path d="M28.687 154.021L32.2957 158.416C35.2731 157.358 37.0646 155.679 38.0707 154.376L34.7854 149.561L28.687 154.016V154.021Z" fill="#FFB284"/>
<path d="M37.6702 148.375C34.7442 142.128 33.7945 134.176 32.619 128.905C32.0338 126.276 32.1365 123.545 32.9578 120.979L35.8222 112C35.9608 111.564 35.7965 111.087 35.4115 110.83L28.7125 124.824L24.4775 144.638L34.7904 148.724L37.6753 148.375H37.6702Z" fill="#933449"/>
<path d="M28.3122 155.506L37.4701 148.72C32.1314 141.287 29.0258 131.549 29.149 125.24C29.3286 116.062 40.3191 91.8067 40.3191 91.8067C40.3191 91.8067 38.199 90.7903 36.618 89.625C32.7782 90.549 25.9406 93.1208 22.6707 96.5499C19.6626 99.7069 12.5016 116.216 11.8496 127.206C10.9308 142.673 28.3122 155.506 28.3122 155.506Z" fill="#BE475A"/>
<path d="M41.936 75.1431L45.0828 74.9583C45.1957 73.0641 46.3558 69.1217 48.8455 69.7583C48.8455 69.7583 54.2509 74.2448 58.7888 71.4009C58.7888 71.4009 59.7744 64.8559 53.9429 63.8498C48.1063 62.8488 44.282 64.4812 43.8662 66.514C43.3528 69.0293 41.936 75.1431 41.936 75.1431Z" fill="#7C4542"/>
<path d="M36.5308 105.512L35.8686 105.425C36.0483 104.111 36.1253 102.879 36.1048 101.755C35.9508 93.3206 30.2476 93.1666 30.0063 93.1615V92.4941C30.0936 92.4941 36.6027 92.5865 36.7721 101.739C36.7926 102.894 36.7105 104.167 36.5257 105.512H36.5308Z" fill="#5E3B3B"/>
<path d="M40.4732 256.623H14.3086L16.095 246.346C21.6493 248.861 24.1851 247.28 25.8637 246.726C25.8637 246.726 27.2189 247.542 28.6306 248.358C31.0433 249.759 34.9908 251.464 37.6345 252.552C39.2977 253.235 40.4013 254.826 40.4732 256.623Z" fill="#D1C5C5"/>
<path d="M15.7164 246.3L13.9355 256.578L14.6942 256.71L16.4751 246.432L15.7164 246.3Z" fill="#5E3B3B"/>
<path d="M21.2743 250.395C18.3226 250.395 15.6687 249.343 15.5044 249.276L15.7919 248.562C15.8483 248.583 21.7003 250.898 25.4169 248.593L25.8224 249.245C24.4364 250.108 22.8143 250.395 21.2743 250.395Z" fill="#5E3B3B"/>
<path d="M87.3199 256.617H61.1553L62.9417 246.34C68.4959 248.855 71.0318 247.274 72.7104 246.72C72.7104 246.72 74.0656 247.536 75.4773 248.352C77.8899 249.754 81.8375 251.458 84.4811 252.546C86.1443 253.229 87.248 254.82 87.3199 256.617Z" fill="#D1C5C5"/>
<path d="M62.5602 246.258L60.7803 256.541L61.539 256.672L63.3189 246.389L62.5602 246.258Z" fill="#5E3B3B"/>
<path d="M68.1214 250.395C65.1698 250.395 62.5158 249.343 62.3516 249.276L62.639 248.562C62.6955 248.588 68.5475 250.898 72.264 248.593L72.6696 249.245C71.2836 250.108 69.6614 250.395 68.1214 250.395Z" fill="#5E3B3B"/>
<path d="M52.3771 86.7698C51.1965 86.7698 48.8403 86.4412 47.1104 84.0799L47.7315 83.623C49.79 86.4361 52.8597 85.9792 52.988 85.9587L53.1112 86.7184C53.0702 86.7236 52.7981 86.7698 52.3771 86.7698Z" fill="#5E3B3B"/>
<path d="M65.6673 101.072L65.0103 100.949C65.847 96.5698 68.3213 95.2506 68.4291 95.1992L68.7371 95.7896C68.7371 95.7896 66.4425 97.037 65.6673 101.072Z" fill="#5E3B3B"/>
<path d="M44.8364 78.9874C44.8364 78.9874 41.9669 79.6547 41.6024 76.8417C41.2739 74.3058 43.9484 73.1405 45.1855 74.7216L44.8364 78.9823V78.9874Z" fill="#FFB284"/>
<path d="M55.3494 72.3451C60.9344 71.6572 62.4077 67.5146 62.4077 67.5146C62.4077 67.5146 60.8831 67.3144 60.6521 66.5495C60.38 65.6461 59.9591 62.5455 56.0834 62.4531L55.3442 72.3502L55.3494 72.3451Z" fill="#7C4542"/>
<path d="M74.5842 115.054C74.4918 113.319 75.4055 111.882 75.4466 111.82L76.0061 112.185C76.0061 112.185 75.1694 113.504 75.2515 115.018L74.5842 115.054Z" fill="#5E3B3B"/>
<path d="M66.9661 117.535L69.6508 132.997C69.6508 132.997 69.6816 133.022 69.7073 133.043C69.7073 133.048 69.7073 133.048 69.7073 133.048C70.2617 133.428 74.1373 135.902 79.6967 134.275C80.1947 134.131 80.6669 133.957 81.1135 133.756C81.1289 133.746 81.1443 133.741 81.1597 133.731C81.1597 133.731 72.0481 133.171 69.312 123.274C68.7987 121.416 67.6796 117.535 67.6796 117.535H66.9609H66.9661Z" fill="#933449"/>
<path d="M85.5692 106.241C83.2746 106.241 79.8712 105.804 76.437 103.782L76.7758 103.207C82.4225 106.539 88.1769 105.353 88.2334 105.342L88.372 105.994C88.2693 106.015 87.2016 106.236 85.5641 106.236L85.5692 106.241Z" fill="#5E3B3B"/>
<path d="M44.8824 62.8635C44.867 62.8122 44.5282 61.5391 43.2397 61.0104L43.5323 60.2969C45.1904 60.9796 45.6113 62.6069 45.6267 62.6736L44.8773 62.8584L44.8824 62.8635Z" fill="#7C4542"/>
<path d="M45.2524 62.9774L44.4824 62.9466C44.5697 60.7649 46.1046 59.2249 46.1662 59.1582L46.7052 59.7075C46.7052 59.7075 45.3192 61.1037 45.2473 62.9774H45.2524Z" fill="#7C4542"/>
<path d="M45.3293 75.3535C45.3036 75.3124 44.6209 74.3063 43.0552 74.3473L43.0347 73.5773C45.0367 73.5311 45.9401 74.8812 45.9761 74.9377L45.3293 75.3535L45.6527 75.1481L45.3293 75.3586V75.3535Z" fill="#5E3B3B"/>
<path d="M34.5093 111.867L28.4077 124.688L29.0103 124.974L35.1119 112.153L34.5093 111.867Z" fill="#5E3B3B"/>
<path d="M37.2034 148.919C31.6491 141.178 30.0834 134.643 29.2262 128.735C29.1594 128.278 29.1132 127.847 29.0722 127.446C28.8566 125.372 28.7539 124.423 26.6544 124.618L26.5928 123.955C29.3545 123.704 29.5239 125.326 29.7344 127.379C29.7754 127.775 29.8216 128.196 29.8832 128.642C30.7302 134.469 32.2702 140.911 37.7424 148.534L37.1982 148.924L37.2034 148.919Z" fill="#5E3B3B"/>
<path d="M29.8676 159.746L29.729 159.094C30.961 158.837 32.116 158.473 33.1683 158.011L33.2659 157.969C33.3326 157.939 33.3993 157.913 33.4661 157.877C36.3253 156.558 37.9013 154.746 38.7277 153.452C38.7534 153.406 38.7842 153.355 38.8201 153.303C39.4515 152.271 39.6569 151.517 39.6569 151.512L40.3037 151.681C40.2934 151.717 40.0778 152.533 39.3848 153.663C39.354 153.714 39.3283 153.755 39.2975 153.801C38.4197 155.182 36.7514 157.097 33.7587 158.478C33.6971 158.514 33.6149 158.544 33.5328 158.585L33.4404 158.627C32.347 159.104 31.1458 159.484 29.8676 159.751V159.746Z" fill="white"/>
<path d="M68.9189 122.517L68.2529 122.559L69.7323 146.007L70.3983 145.965L68.9189 122.517Z" fill="#5E3B3B"/>
<path d="M24.8011 154.181L24.144 153.775C26.6696 149.663 34.3029 146.321 34.6314 146.178L34.9394 146.886C34.8624 146.917 27.2035 150.274 24.8062 154.181H24.8011Z" fill="#5E3B3B"/>
<path d="M49.7285 187.25L49.0757 187.389L60.8488 242.824L61.5016 242.686L49.7285 187.25Z" fill="white"/>
<path d="M73.3369 193.595C72.377 191.033 70.6984 187.286 69.9746 186.962L70.2467 186.352C71.4889 186.906 73.5628 192.286 73.9632 193.359L73.3369 193.595Z" fill="white"/>
<path d="M23.6563 198.406L23.0146 198.221C23.836 195.336 27.0751 193.324 27.2137 193.236L27.5628 193.806C27.532 193.827 24.4058 195.772 23.6563 198.406Z" fill="white"/>
<path d="M48.2962 196.15L47.6494 195.996C48.6247 191.874 49.3383 185.165 50.0877 178.061C50.5497 173.718 51.022 169.226 51.6021 164.832L52.2643 164.919C51.6842 169.308 51.2119 173.795 50.7499 178.132C49.9953 185.258 49.2818 191.987 48.2962 196.15Z" fill="white"/>
<path d="M69.1019 156.568C68.9428 156.542 65.2263 155.875 63.6914 150.793L64.3279 150.598C65.7396 155.264 69.0711 155.885 69.2097 155.911L69.1019 156.568Z" fill="white"/>
<path d="M68.6707 127.035L68.2498 124.89C68.2446 124.854 67.526 121.224 66.2632 117.647L66.8946 117.426C67.5927 119.402 68.1266 121.394 68.4654 122.8L68.8196 119.572L69.4818 119.643L68.6656 127.041L68.6707 127.035Z" fill="#5E3B3B"/>
<path d="M51.8744 95.322C47.3879 95.322 41.7566 93.2224 35.0576 89.049L35.4118 88.4844C46.2894 95.2655 52.4596 95.2296 55.7193 94.0078C59.3383 92.6475 60.329 89.5264 60.3341 89.4956L60.9707 89.6907C60.9296 89.8293 59.8927 93.1454 55.9657 94.629C54.7285 95.0961 53.3631 95.3271 51.8693 95.3271L51.8744 95.322Z" fill="#5E3B3B"/>
<path d="M50.4213 145.957C50.3545 145.931 43.5272 143.442 39.5078 137.189L40.0673 136.83C43.9584 142.893 50.5753 145.305 50.642 145.331L50.4161 145.957H50.4213Z" fill="#5E3B3B"/>
<path d="M43.702 135.034C43.702 135.034 42.5419 133.673 37.5215 128.545L37.9989 128.078C43.0501 133.242 44.1691 134.551 44.2153 134.603L43.7071 135.034H43.702Z" fill="#5E3B3B"/>
<path d="M51.4737 92.1605C49.4768 92.1605 47.0333 91.4624 44.1792 90.0661L44.4718 89.4655C48.5785 91.4727 51.8638 91.9911 53.9685 90.9747C55.6881 90.1431 56.0475 88.598 56.0577 88.5312L56.7097 88.6699C56.6943 88.7469 56.2785 90.5846 54.2713 91.5651C53.4654 91.9603 52.5311 92.1554 51.4685 92.1554L51.4737 92.1605Z" fill="#5E3B3B"/>
<path d="M230.961 62.9355H143.745C140.505 62.9355 137.878 65.5625 137.878 68.8029V193.461C137.878 196.701 140.505 199.328 143.745 199.328H230.961C234.201 199.328 236.828 196.701 236.828 193.461V68.8029C236.828 65.5625 234.201 62.9355 230.961 62.9355Z" fill="#DAF3F7"/>
<path d="M230.247 114.644C230.247 132.062 219.868 147.051 204.956 153.77C200.577 155.742 195.808 156.999 190.798 157.395C190.649 157.41 190.495 157.42 190.346 157.43C189.355 157.497 188.359 157.533 187.353 157.533C181.086 157.533 175.131 156.188 169.767 153.77C154.849 147.056 144.464 132.067 144.464 114.644C144.464 90.9538 163.663 71.75 187.353 71.75C211.044 71.75 230.247 90.9538 230.247 114.644Z" fill="white"/>
<path d="M215.895 122.089C211.398 125.312 201.716 123.895 201.716 123.895L204.514 111.658L210.222 114.851C210.222 114.851 215.166 102.176 214.914 100.333C214.847 99.8458 214.478 99.353 214.247 98.7216C213.626 97.0225 213.579 95.0051 213.985 94.81C214.842 94.3993 214.909 97.0789 215.53 96.9095C215.92 96.8171 216.341 92.038 217.24 92.3152C217.835 92.5 217.178 95.3798 217.522 95.3644C217.845 95.349 217.897 91.6633 218.785 91.8943C219.729 92.1304 218.194 96.0009 218.631 96.0779C218.846 96.1241 219.611 91.6735 220.34 91.8737C221.305 92.1509 219.719 95.7853 220.155 95.9547C220.371 96.0163 220.689 94.6611 220.992 93.8655C221.151 93.4189 221.552 93.4651 221.582 93.7833C221.818 95.4722 221.228 97.0173 220.525 99.1682C220.284 99.9074 219.781 100.462 219.401 100.914C218.975 101.417 220.838 118.557 215.9 122.099L215.895 122.089Z" fill="#FFB284"/>
<path d="M171.363 103.879C171.363 103.879 174.699 73.9932 190.823 79.7836C190.823 79.7836 194.576 78.49 197.687 82.0987C202.825 88.0585 198.698 95.3119 202.794 102.612C202.794 102.612 193.441 110.614 171.363 103.874V103.879Z" fill="#964942"/>
<path d="M191.573 112.539C187.359 113.658 184.304 107.18 184.304 107.18C184.951 102.365 184.448 98.1758 184.448 98.1758L190.177 101.358L193.76 102.524C193.76 102.524 193.811 103.504 193.965 104.675C194.135 105.891 194.412 107.313 194.858 107.986C194.858 107.986 195.782 111.425 191.568 112.539H191.573Z" fill="#FFB284"/>
<path d="M207.414 124.198C207.286 124.814 207.188 125.168 207.188 125.168L206.038 125.183H205.602L205.263 125.194H205.012L200.464 125.24H200.058L199.694 125.245L197.317 125.271C197.317 125.271 195.289 115.651 194.658 110.23C194.529 109.08 194.458 108.12 194.483 107.479C194.483 107.479 194.529 107.479 194.612 107.484C195.423 107.561 199.981 108.1 204.801 111.077C204.96 111.18 205.125 111.287 205.294 111.395C205.371 111.441 205.448 111.493 205.525 111.544C205.761 111.703 205.992 111.862 206.223 112.032C206.603 112.309 206.983 112.602 207.363 112.91C207.409 113.048 207.455 113.182 207.491 113.325C208.661 117.263 207.85 122.155 207.414 124.198Z" fill="#FF7562"/>
<path d="M184.463 98.5516C184.463 98.5516 187.892 104.85 193.847 103.541C200.633 102.053 197.43 85.749 197.43 85.749C197.43 85.749 195.474 80.1383 187.559 83.1824C183.411 84.7737 183.894 90.1791 184.032 93.8546C184.032 93.8546 182.6 93.0743 181.183 94.2447C179.571 95.5794 180.346 98.952 184.468 98.5567L184.463 98.5516Z" fill="#FFB284"/>
<path d="M183.38 92.832C183.38 92.832 193.647 91.2817 193.652 85.6966C193.652 85.6966 195.746 89.331 198.96 89.1308C198.96 89.1308 199.114 82.6679 193.364 81.3281C187.615 79.9883 184.822 81.7029 184.822 81.7029C184.822 81.7029 180.824 87.7038 183.385 92.8268L183.38 92.832Z" fill="#964942"/>
<path d="M204.956 153.658C200.577 155.629 195.808 156.887 190.798 157.282C190.777 157.282 190.752 157.287 190.731 157.287C190.649 157.297 190.562 157.303 190.48 157.308L190.346 157.318L189.961 157.338C189.099 157.39 188.231 157.421 187.353 157.421C181.086 157.421 175.131 156.076 169.767 153.658C170.131 151.071 170.644 148.335 171.358 145.552C171.974 143.14 172.739 140.706 173.688 138.299C173.694 138.278 173.699 138.258 173.709 138.242C173.709 138.242 173.709 138.239 173.709 138.232C173.909 137.703 174.125 137.18 174.351 136.656L199.72 136.831C199.72 136.831 199.92 137.421 200.274 138.473C200.351 138.704 200.433 138.951 200.52 139.223C200.526 139.249 200.536 139.269 200.541 139.295C200.582 139.418 200.628 139.546 200.674 139.68C200.715 139.803 200.757 139.931 200.798 140.065C201.347 141.749 202.066 144.002 202.871 146.63C202.948 146.887 203.031 147.149 203.113 147.411C203.693 149.336 204.319 151.445 204.95 153.658H204.956Z" fill="#739D71"/>
<path d="M175.655 148.807L175.47 148.057C175.752 147.986 182.436 146.271 184.402 141.738L185.11 142.046C182.995 146.928 175.957 148.73 175.655 148.807Z" fill="#5E3B3B"/>
<path d="M180.629 150.197C180.228 150.556 178.39 148.785 178.252 149.047C178.113 149.299 180.818 150.967 180.259 151.526C179.663 152.117 177.477 149.268 177.225 149.55C177.097 149.694 180.059 152.24 179.586 152.692C178.95 153.282 176.958 150.495 176.645 150.746C176.501 150.869 177.374 151.711 177.826 152.286C178.077 152.61 177.867 152.887 177.626 152.769C174.92 151.47 174.042 149.632 173.673 148.575C173.498 148.077 173.237 147.625 172.872 147.24C169.879 144.057 160.911 133.601 163.904 123.391L174.433 127.169C174.433 127.169 171.394 137.661 176.157 145.603C176.157 145.603 177.846 145.834 178.365 146.044C179.027 146.311 180.587 147.045 180.341 147.507C180.09 147.979 178.411 146.958 178.267 147.486C178.154 147.815 181.229 149.658 180.623 150.202L180.629 150.197Z" fill="#FFB284"/>
<path d="M173.575 138.258C173.575 138.258 192.533 144.588 200.797 138.089C200.797 138.089 201.275 116.847 194.478 107.469C193.698 112.746 184.407 106.17 184.407 106.17L172.595 124.357L173.575 138.258Z" fill="#FF7562"/>
<path d="M184.412 106.18L184.304 106.447L174.53 130.07C174.443 130.075 174.361 130.08 174.279 130.08C174.13 130.091 173.981 130.096 173.837 130.096C173.811 130.101 173.791 130.101 173.77 130.096C173.509 130.101 173.252 130.096 173 130.086C168.919 129.901 165.264 127.981 163.334 126.769C162.415 126.189 161.887 125.768 161.887 125.768C161.887 125.768 162.015 125.286 162.292 124.465C162.354 124.3 162.415 124.115 162.482 123.92C162.513 123.854 162.539 123.782 162.569 123.71C162.616 123.597 162.657 123.479 162.698 123.356C164.648 118.284 170.244 106.97 181.732 106.174C182.589 106.118 183.478 106.113 184.402 106.18H184.412Z" fill="#FF7562"/>
<path d="M199.93 127.807C199.611 123.695 199.036 120.004 198.21 116.847L198.954 116.652C199.786 119.856 200.376 123.587 200.695 127.745L199.925 127.807H199.93Z" fill="#5E3B3B"/>
<path d="M206.182 124.202C206.126 124.582 206.079 124.911 206.038 125.183H205.602L205.263 125.193C205.304 124.926 205.35 124.587 205.407 124.187C205.766 121.553 206.285 116.317 205.474 112.2C205.422 111.923 205.361 111.656 205.294 111.395C205.371 111.441 205.448 111.492 205.525 111.543C205.761 111.703 205.992 111.862 206.223 112.031C206.269 112.247 206.305 112.462 206.336 112.683C206.998 116.749 206.526 121.625 206.182 124.202Z" fill="#5E3B3B"/>
<path d="M174.386 128.042V128.812C174.273 128.812 174.171 128.812 174.063 128.801C173.929 128.801 173.796 128.796 173.662 128.781C173.416 128.77 173.164 128.745 172.908 128.719C169.453 128.303 165.896 126.62 163.503 125.213C163.057 124.946 162.646 124.695 162.292 124.464C162.354 124.299 162.415 124.115 162.482 123.919C162.513 123.853 162.538 123.781 162.569 123.709C162.867 123.904 163.237 124.14 163.657 124.392C165.778 125.67 169.304 127.482 172.851 127.934C173.17 127.975 173.483 128.006 173.796 128.026C173.94 128.031 174.078 128.036 174.222 128.036C174.278 128.036 174.33 128.036 174.386 128.036V128.042Z" fill="#5E3B3B"/>
<path d="M174.273 130.126L173.503 130.08C173.503 130.013 173.96 123.345 178.026 118.479L178.616 118.971C174.725 123.632 174.273 130.064 174.273 130.126Z" fill="#5E3B3B"/>
<path d="M189.761 146.83C188.914 146.83 188.221 146.137 188.221 145.29C188.221 144.443 188.914 143.75 189.761 143.75C190.608 143.75 191.306 144.443 191.306 145.29C191.306 146.137 190.613 146.83 189.761 146.83ZM189.761 144.52C189.335 144.52 188.991 144.864 188.991 145.29C188.991 145.716 189.335 146.06 189.761 146.06C190.187 146.06 190.536 145.716 190.536 145.29C190.536 144.864 190.187 144.52 189.761 144.52Z" fill="#5E3B3B"/>
<path d="M202.876 146.631C198.708 146.353 196.259 143.602 195.351 142.339C195.079 141.959 194.94 141.718 194.94 141.713L194.227 142C194.227 142 194.329 142.201 194.535 142.498C195.402 143.797 198.159 147.221 203.117 147.411L202.876 146.631Z" fill="#5E3B3B"/>
<path d="M173.894 139.413C175.387 139.89 182.707 142.103 189.817 142.103C194.478 142.103 198.082 141.163 200.546 139.295C200.587 139.418 200.633 139.546 200.679 139.68C200.72 139.803 200.761 139.931 200.802 140.065C199.334 141.122 197.512 141.882 195.351 142.339C195.084 142.401 194.812 142.457 194.535 142.498C193.097 142.75 191.521 142.873 189.817 142.873C188.113 142.873 186.475 142.755 184.863 142.56C184.586 142.529 184.309 142.498 184.037 142.457C179.509 141.851 175.603 140.743 174.068 140.27L173.894 139.413Z" fill="#5E3B3B"/>
<path d="M189.961 157.339C189.674 152.621 189.597 148.725 189.597 148.699H190.367C190.367 148.73 190.449 152.616 190.731 157.292L189.961 157.339Z" fill="#5E3B3B"/>
<path d="M192.03 104.084C190.51 104.084 188.585 103.663 187.045 101.949L187.615 101.436C190.3 104.418 194.304 102.981 194.345 102.965L194.612 103.689C194.612 103.689 193.498 104.089 192.03 104.089V104.084Z" fill="#5E3B3B"/>
<path d="M188.857 92.8899L188.575 92.1712C188.621 92.1507 193.169 90.2976 193.272 85.8008L194.042 85.8162C193.929 90.8263 188.908 92.8642 188.857 92.8848V92.8899Z" fill="#964942"/>
<path d="M198.539 90.6665C194.986 90.6665 193.339 86.5753 193.272 86.3956L193.991 86.1133C194.006 86.1543 195.638 90.1994 198.929 89.876L199.001 90.6409C198.847 90.6563 198.693 90.6614 198.544 90.6614L198.539 90.6665Z" fill="#964942"/>
<path d="M170.855 75.5945L170.454 74.65C175.808 72.3862 181.491 71.2363 187.348 71.2363C189.468 71.2363 191.593 71.3903 193.677 71.6932L193.528 72.7096C191.496 72.4119 189.417 72.263 187.348 72.263C181.624 72.263 176.075 73.3821 170.855 75.5945Z" fill="#5E3B3B"/>
<path d="M187.353 158.046C181.152 158.046 175.161 156.763 169.556 154.237C154.002 147.235 143.951 131.697 143.951 114.644C143.951 102.657 148.73 91.4976 157.405 83.2227L158.114 83.967C149.644 92.0469 144.977 102.94 144.977 114.644C144.977 131.291 154.792 146.465 169.977 153.303C175.449 155.772 181.296 157.019 187.353 157.019C188.323 157.019 189.319 156.984 190.31 156.917C190.469 156.907 190.608 156.896 190.741 156.881C195.607 156.496 200.315 155.29 204.74 153.298C206.31 152.589 207.856 151.778 209.329 150.88L209.863 151.758C208.353 152.677 206.772 153.508 205.161 154.237C200.628 156.28 195.808 157.512 190.833 157.908C190.7 157.923 190.546 157.933 190.402 157.943C189.36 158.015 188.344 158.051 187.353 158.051V158.046Z" fill="#5E3B3B"/>
<path d="M23.0147 87.7551C21.023 87.7551 19.4009 86.1329 19.4009 84.1412C19.4009 82.1495 21.023 80.5273 23.0147 80.5273C25.0065 80.5273 26.6286 82.1495 26.6286 84.1412C26.6286 86.1329 25.0065 87.7551 23.0147 87.7551ZM23.0147 81.554C21.5877 81.554 20.4275 82.7141 20.4275 84.1412C20.4275 85.5683 21.5877 86.7284 23.0147 86.7284C24.4418 86.7284 25.6019 85.5683 25.6019 84.1412C25.6019 82.7141 24.4418 81.554 23.0147 81.554Z" fill="#8ECBD8"/>
<path d="M11.8189 194.103C9.82721 194.103 8.20508 192.481 8.20508 190.489C8.20508 188.497 9.82721 186.875 11.8189 186.875C13.8107 186.875 15.4328 188.497 15.4328 190.489C15.4328 192.481 13.8107 194.103 11.8189 194.103ZM11.8189 187.907C10.3919 187.907 9.23174 189.067 9.23174 190.494C9.23174 191.921 10.3919 193.081 11.8189 193.081C13.246 193.081 14.4061 191.921 14.4061 190.494C14.4061 189.067 13.246 187.907 11.8189 187.907Z" fill="white"/>
<path d="M102.237 188.693C101.231 188.693 100.415 187.877 100.415 186.871C100.415 185.865 101.231 185.049 102.237 185.049C103.244 185.049 104.06 185.865 104.06 186.871C104.06 187.877 103.244 188.693 102.237 188.693ZM102.237 185.567C101.519 185.567 100.934 186.152 100.934 186.871C100.934 187.59 101.519 188.175 102.237 188.175C102.956 188.175 103.541 187.59 103.541 186.871C103.541 186.152 102.956 185.567 102.237 185.567Z" fill="white"/>
<path d="M81.17 65.3126C80.1639 65.3126 79.3477 64.4964 79.3477 63.4903C79.3477 62.4842 80.1639 61.668 81.17 61.668C82.1761 61.668 82.9923 62.4842 82.9923 63.4903C82.9923 64.4964 82.1761 65.3126 81.17 65.3126ZM81.17 62.1864C80.4513 62.1864 79.8661 62.7716 79.8661 63.4903C79.8661 64.209 80.4513 64.7942 81.17 64.7942C81.8887 64.7942 82.4739 64.209 82.4739 63.4903C82.4739 62.7716 81.8887 62.1864 81.17 62.1864Z" fill="white"/>
<path d="M284.876 67.1408C283.87 67.1408 283.054 66.3246 283.054 65.3184C283.054 64.3123 283.87 63.4961 284.876 63.4961C285.882 63.4961 286.698 64.3123 286.698 65.3184C286.698 66.3246 285.882 67.1408 284.876 67.1408ZM284.876 64.0094C284.157 64.0094 283.572 64.5946 283.572 65.3133C283.572 66.032 284.157 66.6172 284.876 66.6172C285.595 66.6172 286.18 66.032 286.18 65.3133C286.18 64.5946 285.595 64.0094 284.876 64.0094Z" fill="#8ECBD8"/>
<path d="M314.593 179.392H305.79L310.194 171.764L314.598 179.392H314.593ZM307.566 178.365H312.812L310.189 173.817L307.566 178.365Z" fill="#8ECBD8"/>
<path d="M95.4047 207.173H86.6011L91.0055 199.545L95.4099 207.173H95.4047ZM88.3772 206.146H93.6235L91.0003 201.598L88.3772 206.146Z" fill="#8ECBD8"/>
<path d="M116.975 47.0539H108.171L112.576 39.4258L116.98 47.0539H116.975ZM109.948 46.0273H115.199L112.576 41.4791L109.953 46.0273H109.948Z" fill="white"/>
<path d="M208.857 0.602064C208.605 0.591797 208.354 0.591797 208.102 0.591797C207.851 0.591797 207.594 0.591797 207.347 0.602064C189.822 1.1154 179.073 20.1036 187.245 35.6217L206.033 69.6043C206.932 71.2316 209.272 71.2316 210.171 69.6043L228.959 35.6217C237.126 20.1087 226.382 1.1154 208.857 0.602064ZM208.102 37.6083C200.53 37.6083 194.401 31.4739 194.401 23.9074C194.401 16.3409 200.536 10.2065 208.102 10.2065C215.669 10.2065 221.803 16.3409 221.803 23.9074C221.803 31.4739 215.663 37.6083 208.102 37.6083Z" fill="#FF7562"/>
<path d="M208.097 71.3403C207.035 71.3403 206.095 70.7859 205.582 69.8517L186.794 35.869C183.385 29.4061 183.031 21.8345 185.813 15.0893L186.763 15.4794C184.099 21.9371 184.443 29.1905 187.702 35.3762L206.485 69.3537C206.814 69.9543 207.42 70.3085 208.102 70.3085C208.785 70.3085 209.391 69.9492 209.724 69.3537L220.561 49.7495L221.459 50.2475L210.623 69.8517C210.109 70.7808 209.165 71.3403 208.102 71.3403H208.097ZM225.258 43.3791L224.36 42.8811L228.512 35.3711C232.311 28.1536 232.116 19.6169 227.984 12.538C223.944 5.61314 216.788 1.34221 208.841 1.11121C208.344 1.09581 207.851 1.09581 207.363 1.11121C202.748 1.24468 198.369 2.71794 194.699 5.37188L194.099 4.54028C197.938 1.76828 202.512 0.228275 207.332 0.089675C207.835 0.074275 208.359 0.074275 208.877 0.089675C217.173 0.330942 224.652 4.79181 228.872 12.0247C233.184 19.4064 233.384 28.3179 229.416 35.8587L225.258 43.3791Z" fill="#5E3B3B"/>
<path d="M267.346 101.139L270.713 99.9126L273.562 89.7383L280.759 89.7742L282.561 100.436L287.473 101.658C287.473 101.658 284.08 106.878 277.161 106.878C268.634 106.878 267.346 101.145 267.346 101.145V101.139Z" fill="#FFB284"/>
<path d="M239.431 250.042L243.224 238.02H234.405L231.721 250.042H239.431Z" fill="#FFB284"/>
<path d="M291.057 250.304L292.083 238.281H283.27L283.803 250.304H291.057Z" fill="#FFB284"/>
<path d="M273.588 195.654C273.588 199.34 273.624 203.072 273.711 206.814C273.988 218.728 274.758 230.761 276.298 241.751C278.927 242.352 281.273 242.752 283.387 242.988C284.045 243.065 284.676 243.122 285.292 243.163C286.123 243.219 286.919 243.255 287.679 243.255C288.998 243.271 290.225 243.219 291.37 243.106C293.962 242.865 296.169 242.347 298.264 241.746C298.264 241.746 303.248 184.658 294.414 133.51L276.745 133.587C276.745 133.587 275.087 148.961 274.173 169.977C273.845 177.549 273.614 185.849 273.593 194.427C273.593 194.833 273.593 195.238 273.593 195.649L273.588 195.654Z" fill="#D1C5C5"/>
<path d="M286.052 97.9863C286.052 97.9863 312.216 103.818 307.365 126.943C304.876 138.817 296.082 140.732 296.082 140.732L286.052 97.9863Z" fill="#205E8C"/>
<path d="M233.774 113.418C233.281 113.136 231.674 112.294 231.382 111.811C231.11 111.365 229.944 108.752 229.416 109.05C228.861 109.363 230.032 110.99 229.554 111.16C229.256 111.262 226.905 108.11 226.423 108.711C226.11 109.106 227.793 110.821 227.557 110.964C227.337 111.098 225.699 108.547 225.206 109.106C224.688 109.691 227.378 111.704 227.126 111.965C226.998 112.094 224.559 109.322 224.169 109.794C223.646 110.42 226.274 112.248 226.058 112.556C225.956 112.705 225.139 111.894 224.595 111.473C224.292 111.237 224.056 111.447 224.164 111.683C225.263 114.132 229.539 116.062 229.842 116.406C230.288 116.914 230.74 117.407 231.192 117.874L233.784 113.423L233.774 113.418Z" fill="#FFB284"/>
<path d="M273.588 195.653C273.588 199.339 273.624 203.071 273.711 206.813C273.988 218.728 274.758 230.76 276.298 241.751C278.927 242.351 281.273 242.752 283.387 242.988L283.495 242.932C275.708 223.83 277.597 174.14 277.597 174.14L274.173 169.977C273.845 177.548 273.614 185.849 273.593 194.427C273.593 194.832 273.593 195.238 273.593 195.648L273.588 195.653Z" fill="#BCADAD"/>
<path d="M227.706 241.823C238.158 244.975 248.789 241.823 248.789 241.823C275.908 190.746 288.285 133.053 288.285 133.053H267.33C240.267 180.387 227.711 241.823 227.711 241.823H227.706Z" fill="#D1C5C5"/>
<path d="M245.16 118.433L233.774 111.734L228.933 117.669C228.933 117.669 235.945 135.943 249.692 134.403C260.688 133.176 267.32 112.561 267.32 112.561L245.16 118.433Z" fill="#205E8C"/>
<path d="M298.654 241.786L297.889 241.719C297.93 241.257 301.821 195.119 296.37 149.596L297.134 149.504C302.596 195.103 298.695 241.319 298.659 241.781L298.654 241.786Z" fill="#5E3B3B"/>
<path d="M249.128 242.002L248.45 241.643C260.56 218.84 271.509 192.496 278.49 169.365L279.23 169.586C272.233 192.758 261.263 219.153 249.133 242.002H249.128Z" fill="#5E3B3B"/>
<path d="M269.445 256.627H294.193L292.504 246.904C287.248 249.281 284.85 247.787 283.264 247.264C283.264 247.264 281.981 248.039 280.646 248.809C278.362 250.133 274.63 251.745 272.13 252.777C270.559 253.424 269.512 254.928 269.445 256.627Z" fill="#E86456"/>
<path d="M292.821 246.874L292.163 246.988L293.852 256.714L294.509 256.6L292.821 246.874Z" fill="white"/>
<path d="M287.607 250.709C286.154 250.709 284.63 250.437 283.321 249.626L283.675 249.061C287.202 251.253 292.751 249.061 292.807 249.035L293.059 249.656C292.9 249.718 290.395 250.714 287.612 250.714L287.607 250.709Z" fill="white"/>
<path d="M217.789 256.627H242.536L240.847 246.904C235.591 249.281 233.194 247.787 231.607 247.264C231.607 247.264 230.324 248.039 228.99 248.809C226.705 250.133 222.973 251.745 220.473 252.777C218.902 253.424 217.855 254.928 217.789 256.627Z" fill="#E86456"/>
<path d="M241.188 246.825L240.53 246.939L242.221 256.665L242.878 256.551L241.188 246.825Z" fill="white"/>
<path d="M235.95 250.709C234.498 250.709 232.973 250.437 231.664 249.626L232.018 249.061C235.545 251.253 241.094 249.061 241.15 249.035L241.402 249.656C241.243 249.718 238.738 250.714 235.956 250.714L235.95 250.709Z" fill="white"/>
<path d="M245.427 120.445C245.375 120.383 244.226 118.92 245.073 117.473L245.735 117.863C245.155 118.848 245.991 119.916 246.027 119.962L245.427 120.445Z" fill="#5E3B3B"/>
<path d="M263.624 155.669C263.08 155.669 260.832 155.567 259.44 153.924C258.383 152.682 258.096 150.885 258.573 148.58L259.225 148.719C258.789 150.813 259.03 152.42 259.949 153.498C261.304 155.089 263.691 155.002 263.717 155.007L263.742 155.674C263.742 155.674 263.691 155.674 263.624 155.674V155.669Z" fill="white"/>
<path d="M257.413 106.878L256.787 106.432C263.352 97.2585 274.101 97.8539 274.204 97.8591L274.153 98.6291C274.05 98.6188 263.722 98.0644 257.408 106.883L257.413 106.878Z" fill="#5E3B3B"/>
<path d="M299.26 128.576L289.517 116.328L263.861 124.782L245.396 118.371C245.396 118.371 257.444 103.694 263.363 100.004C267.983 97.1237 269.749 97.6319 272.71 97.2623C280.416 96.3075 292.135 97.7141 294.214 98.6278C296.981 102.36 299.388 107.159 299.255 112.478V128.576H299.26Z" fill="#205E8C"/>
<path d="M259.949 142.893C284.573 151.322 296.929 142.975 296.929 142.975C296.929 142.975 299.08 116.826 298.664 112.201C298.664 112.201 265.385 110.558 260.529 118.936C255.493 127.621 259.954 142.898 259.954 142.898L259.949 142.893Z" fill="#205E8C"/>
<path d="M279.143 92.8583C276.458 94.8603 271.879 94.8346 269.528 94.2494C267.048 93.6334 264.471 92.0986 267.849 85.0094C270.175 80.1276 269.98 78.8494 270.939 76.6678C271.571 75.2356 273.162 74.2346 276.088 74.522C281.047 75.0097 287.915 86.3287 279.137 92.8583H279.143Z" fill="#FFB284"/>
<path d="M272.459 94.9985C272.074 94.9985 271.817 94.9728 271.735 94.9626L271.822 94.1977C271.925 94.208 274.384 94.4852 276.416 93.0684L276.858 93.6998C275.251 94.8188 273.449 94.9985 272.459 94.9985Z" fill="#633F3F"/>
<path d="M275.857 83.1199C272.808 82.3807 270.493 80.584 269.661 78.3048C268.547 75.23 270.857 72.0319 270.955 71.8984L271.576 72.3553C271.489 72.4785 269.405 75.3532 270.385 78.043C271.124 80.0758 273.234 81.6928 276.037 82.3704L275.857 83.1199Z" fill="#EA8F47"/>
<path d="M299.203 111.713C294.239 114.68 282.448 113.967 278.218 104.106C275.102 96.842 276.632 88.6132 277.361 86.3238L276.078 82.2582C276.078 82.2582 269.61 79.4348 271.232 71.9761C271.232 71.9761 271.945 72.5408 274.137 72.3611C275.354 72.2584 278.572 71.0624 281.75 71.74C281.755 71.74 281.771 71.74 281.776 71.7451C284.645 72.1147 290.631 74.1013 291.242 83.598C291.745 91.4263 298.264 92.2682 301.349 95.4149C307.524 101.703 304.814 108.366 299.203 111.713Z" fill="#EA8F47"/>
<path d="M278.983 84.2241C278.983 85.3996 278.029 86.3544 276.853 86.3544C275.677 86.3544 274.723 85.3996 274.723 84.2241C274.723 83.0485 275.677 82.0938 276.853 82.0938C278.029 82.0938 278.983 83.0485 278.983 84.2241Z" fill="#FFB284"/>
<path d="M306.621 99.4851C306.118 97.4575 304.85 95.5427 302.848 93.8025C301.909 92.9812 300.697 92.3755 299.414 91.7338C296.159 90.1014 292.797 88.4125 292.012 82.9609C290.677 73.6593 284.553 72.3452 281.981 72.2117H281.919C279.599 71.8986 277.33 72.5967 275.831 73.0536L275.605 72.3195C277.171 71.8421 279.532 71.1132 282.017 71.4417C284.779 71.5855 291.349 72.9869 292.766 82.848C293.495 87.9043 296.678 89.5008 299.753 91.0459C301.077 91.7133 302.33 92.3395 303.346 93.2225C305.471 95.0705 306.821 97.1135 307.36 99.3003L306.611 99.4851H306.621Z" fill="#EA8F47"/>
<path d="M297.965 117.472L296.669 142.967L297.182 142.993L298.478 117.498L297.965 117.472Z" fill="white"/>
<path d="M300.882 138.709L300.451 138.072C300.523 138.026 307.55 133.139 307.586 121.789H308.356C308.32 133.57 300.954 138.657 300.882 138.709Z" fill="#5E3B3B"/>
<path d="M248.08 134.885C235.278 134.885 228.646 117.987 228.579 117.812L228.502 117.607L233.687 111.139L238.923 114.214L237.875 115.754L237.239 115.322L237.824 114.465L233.871 112.145L229.38 117.745C230.201 119.727 237.116 135.435 249.656 134.033C255.616 133.366 260.298 126.718 263.173 121.251L263.855 121.611C260.893 127.237 256.037 134.09 249.744 134.798C249.179 134.86 248.63 134.891 248.086 134.891L248.08 134.885Z" fill="#5E3B3B"/>
<path d="M236.575 116.282L233.459 120.85L234.096 121.284L237.211 116.716L236.575 116.282Z" fill="#5E3B3B"/>
<path d="M306.185 256.17H4.21143V257.197H306.185V256.17Z" fill="#5E3B3B"/>
<path d="M292.741 222.213C292.7 222.095 288.721 210.217 284.876 206.967L285.374 206.377C289.384 209.765 293.305 221.469 293.47 221.967L292.741 222.208V222.213Z" fill="#5E3B3B"/>
<path d="M289.014 207.387C288.983 207.331 285.723 201.869 283.233 199.939L283.706 199.328C286.313 201.346 289.537 206.761 289.676 206.992L289.014 207.387Z" fill="#5E3B3B"/>
<path d="M242.68 233.215C242.68 233.107 242.511 222.64 237.47 219.124L237.911 218.492C243.276 222.234 243.445 232.763 243.45 233.209L242.68 233.22V233.215Z" fill="#5E3B3B"/>
<path d="M198.527 42.9666L197.844 43.3223L206.916 60.7417L207.599 60.386L198.527 42.9666Z" fill="white"/>
<path d="M204.874 46.498L204.188 46.8477L207.596 53.534L208.282 53.1843L204.874 46.498Z" fill="white"/>
<path d="M222.865 167.502H151.856V173.138H222.865V167.502Z" fill="white"/>
<path d="M222.865 178.627H151.856V184.263H222.865V178.627Z" fill="white"/>
</svg>
