<svg width="24" height="24" viewBox="0 0 24 24" fill="none" xmlns="http://www.w3.org/2000/svg">
<path d="M21 18.75C21 21 16.971 22.5 12 22.5C7.029 22.5 3 21 3 18.75C3 16.5 7.029 15 12 15C16.971 15 21 16.5 21 18.75Z" fill="url(#paint0_radial_292_3016)"/>
<path d="M12 1.5C10.0109 1.5 8.10322 2.29018 6.6967 3.6967C5.29018 5.10322 4.5 7.01088 4.5 9C4.5 10.716 5.475 12.525 6.5895 14.058C7.725 15.6225 9.105 17.037 10.1085 17.988C10.6177 18.4752 11.2953 18.7472 12 18.7472C12.7047 18.7472 13.3823 18.4752 13.8915 17.988C14.895 17.037 16.275 15.6225 17.4105 14.058C18.5235 12.525 19.5 10.716 19.5 9C19.5 8.01509 19.306 7.03982 18.9291 6.12987C18.5522 5.21993 17.9997 4.39314 17.3033 3.6967C16.6069 3.00026 15.7801 2.44781 14.8701 2.0709C13.9602 1.69399 12.9849 1.5 12 1.5Z" fill="url(#paint1_linear_292_3016)"/>
<path d="M14.25 9C14.25 9.59674 14.0129 10.169 13.591 10.591C13.169 11.0129 12.5967 11.25 12 11.25C11.4033 11.25 10.831 11.0129 10.409 10.591C9.98705 10.169 9.75 9.59674 9.75 9C9.75 8.40326 9.98705 7.83097 10.409 7.40901C10.831 6.98705 11.4033 6.75 12 6.75C12.5967 6.75 13.169 6.98705 13.591 7.40901C14.0129 7.83097 14.25 8.40326 14.25 9Z" fill="url(#paint2_linear_292_3016)"/>
<defs>
<radialGradient id="paint0_radial_292_3016" cx="0" cy="0" r="1" gradientUnits="userSpaceOnUse" gradientTransform="translate(11.355 17.499) rotate(-10.024) scale(14.3621 5.99471)">
<stop stop-color="#7B7BFF"/>
<stop offset="0.502" stop-color="#A3A3FF"/>
<stop offset="1" stop-color="#CEB0FF"/>
</radialGradient>
<linearGradient id="paint1_linear_292_3016" x1="1.2195" y1="-3.4275" x2="13.4535" y2="16.1025" gradientUnits="userSpaceOnUse">
<stop stop-color="#F97DBD"/>
<stop offset="1" stop-color="#D7257D"/>
</linearGradient>
<linearGradient id="paint2_linear_292_3016" x1="10.011" y1="9.1995" x2="12.354" y2="11.6355" gradientUnits="userSpaceOnUse">
<stop stop-color="#FDFDFD"/>
<stop offset="1" stop-color="#FECBE6"/>
</linearGradient>
</defs>
</svg>
