<svg width="12" height="12" viewBox="0 0 12 12" fill="none" xmlns="http://www.w3.org/2000/svg">
<g clip-path="url(#clip0_463_2387)">
<path d="M1.92542 6.53783L2.44292 6.02033C2.62667 5.83658 2.84417 5.68471 3.08042 5.57408L2.94917 7.01221L2.50292 8.17658C2.39417 8.45971 2.23292 8.71283 2.02292 8.93033L1.42855 9.54533C1.34103 9.63637 1.27256 9.74396 1.22716 9.8618C1.18177 9.97964 1.16035 10.1054 1.16417 10.2316C1.17167 10.4735 1.26917 10.6928 1.4398 10.8503C1.60537 11.0027 1.82229 11.0871 2.0473 11.0866C2.29105 11.0866 2.52542 10.9872 2.68855 10.8147L3.75355 9.71783C3.83792 9.63158 3.90355 9.52471 3.9448 9.41408L4.05542 9.12908C4.20917 9.35596 4.31792 9.60721 4.3798 9.87533L4.55042 10.6141C4.64417 11.0228 5.0023 11.3078 5.4223 11.3078C5.53193 11.3075 5.64059 11.2872 5.74292 11.2478C6.1573 11.0903 6.39167 10.631 6.28667 10.1772L6.15167 9.58846C6.02042 9.01658 5.78417 8.48221 5.45417 7.99846L4.75105 6.97471L4.8223 6.19096C4.9048 6.26596 4.99855 6.32596 5.10355 6.36533L5.89855 6.66533C5.9998 6.70471 6.10667 6.72533 6.22105 6.72533C6.40211 6.72442 6.57871 6.66902 6.72786 6.56636C6.87701 6.4637 6.9918 6.31851 7.0573 6.14971C7.23355 5.68846 6.99917 5.17096 6.53792 4.99471L6.31105 4.90846C6.04308 4.80644 5.79734 4.65364 5.5873 4.45846L4.86917 3.79096C5.47855 3.68783 5.94355 3.15908 5.94355 2.52158C5.94355 2.17945 5.80764 1.85134 5.56571 1.60941C5.32379 1.36749 4.99568 1.23158 4.65355 1.23158C4.31142 1.23158 3.9833 1.36749 3.74138 1.60941C3.49946 1.85134 3.36355 2.17945 3.36355 2.52158C3.36355 2.89096 3.52105 3.22471 3.7723 3.46096L2.9623 3.71596C2.25167 3.94096 1.5973 4.33658 1.06855 4.86533L0.639172 5.29471C0.550917 5.38272 0.482117 5.48827 0.437223 5.60455C0.392328 5.72082 0.372339 5.84522 0.378547 5.96971C0.389797 6.22096 0.509797 6.45721 0.704797 6.61846C1.05542 6.90721 1.59355 6.87158 1.9273 6.53783H1.92542ZM3.59417 9.28283C3.5698 9.34846 3.5323 9.40846 3.48542 9.45721L2.42042 10.556C2.23667 10.7472 1.89355 10.7585 1.6948 10.5747C1.59917 10.4866 1.54292 10.361 1.53917 10.2203C1.53542 10.0647 1.59167 9.91471 1.69855 9.80596L2.29292 9.19096C2.5373 8.93872 2.72801 8.63958 2.85355 8.31158L3.08417 7.70971C3.08417 7.70971 3.08792 7.71908 3.09167 7.72283L3.79855 8.75221L3.59417 9.28283ZM4.98355 4.41158L5.32855 4.73408C5.57366 4.96279 5.86085 5.14173 6.17417 5.26096L6.40105 5.34721C6.66917 5.45033 6.80417 5.75033 6.70292 6.01658C6.66487 6.11471 6.59824 6.19915 6.51166 6.25898C6.42508 6.31882 6.32254 6.3513 6.2173 6.35221C6.15167 6.35221 6.0898 6.34096 6.03167 6.31658L5.23667 6.01471C5.17399 5.99042 5.11667 5.95412 5.06792 5.90783L4.86355 5.71846L4.98167 4.40971L4.98355 4.41158ZM3.73667 2.52158C3.73667 2.01721 4.1473 1.60658 4.65167 1.60658C5.15605 1.60658 5.56667 2.01721 5.56667 2.52158C5.56667 3.02596 5.15605 3.43658 4.65167 3.43658C4.1473 3.43658 3.73667 3.02596 3.73667 2.52158ZM0.901672 5.55908L1.33105 5.12971C1.81667 4.64596 2.41667 4.28033 3.07105 4.07408L3.93542 3.80221H3.93917C3.96167 3.79471 3.98417 3.78908 4.00667 3.78533C4.0123 3.78533 4.01792 3.78533 4.02355 3.78346C4.05355 3.77783 4.08355 3.77783 4.11167 3.77783C4.1248 3.77783 4.13792 3.77971 4.15292 3.78158C4.17542 3.78533 4.19605 3.78721 4.21667 3.79283C4.23167 3.79658 4.24667 3.80033 4.26167 3.80596H4.26542C4.29542 3.81721 4.32355 3.83221 4.3498 3.84721C4.3648 3.85471 4.37792 3.86596 4.39105 3.87533C4.4023 3.88283 4.41355 3.89033 4.42292 3.89971C4.46417 3.93346 4.4998 3.97283 4.5298 4.01971C4.59167 4.11346 4.61792 4.23908 4.60667 4.37033L4.36667 7.01221C4.36292 7.05533 4.37417 7.09846 4.39855 7.13596L5.13917 8.21596C5.4448 8.66033 5.66042 9.15158 5.78042 9.67846L5.91542 10.2672C5.9773 10.5391 5.84417 10.811 5.6023 10.9028C5.5423 10.9253 5.47855 10.9385 5.4148 10.9385C5.17105 10.9385 4.96292 10.7735 4.90855 10.5353L4.73792 9.79658C4.6648 9.47596 4.53167 9.17596 4.34605 8.90596L3.39355 7.51658C3.32605 7.41721 3.29417 7.29533 3.30355 7.17533L3.4723 5.31533C3.47792 5.25346 3.45167 5.19158 3.40292 5.15221C3.379 5.13245 3.35041 5.11914 3.31989 5.11356C3.28936 5.10798 3.25792 5.11031 3.22855 5.12033C2.83105 5.24596 2.46355 5.46908 2.16917 5.76346L1.65167 6.28096C1.45292 6.47971 1.13605 6.50596 0.933547 6.33721C0.817297 6.24158 0.749797 6.10846 0.744172 5.96033C0.740868 5.88776 0.752661 5.8153 0.778803 5.74752C0.804945 5.67975 0.844868 5.61814 0.896047 5.56658L0.901672 5.55908ZM9.77605 3.09533L10.2017 4.48658H11.4354C11.5385 4.48658 11.6229 4.57096 11.6229 4.67408C11.6229 4.77721 11.5385 4.86158 11.4354 4.86158H10.0629C9.98042 4.86158 9.9073 4.80721 9.88292 4.72846L9.5998 3.80408L8.93417 6.07658C8.91167 6.15533 8.84042 6.20971 8.7598 6.21158H8.75417C8.67542 6.21158 8.60417 6.16283 8.57792 6.08783L7.95355 4.34783H7.04605C6.94292 4.34783 6.85855 4.26346 6.85855 4.16033C6.85855 4.05721 6.94292 3.97283 7.04605 3.97283H8.0848C8.16355 3.97283 8.2348 4.02346 8.26105 4.09658L8.73542 5.41846L9.41417 3.09908C9.43667 3.02033 9.5098 2.96408 9.5923 2.96408C9.6748 2.96408 9.74792 3.01846 9.7723 3.09721L9.77605 3.09533ZM7.67792 3.40471C7.76792 3.47596 7.87667 3.51158 7.98355 3.51158C8.09042 3.51158 8.19917 3.47596 8.29105 3.40471C8.98105 2.85533 9.36917 2.30596 9.44605 1.76971C9.48917 1.47721 9.39355 1.16408 9.20042 0.954083C9.122 0.866617 9.02467 0.798188 8.91583 0.754C8.80698 0.709813 8.68949 0.691031 8.5723 0.699083C8.35667 0.712208 8.1673 0.847208 8.00792 0.972833C7.9948 0.984082 7.97417 0.984082 7.96105 0.972833C7.7998 0.847208 7.6123 0.712208 7.3948 0.699083C7.1548 0.684083 6.93167 0.775958 6.76667 0.954083C6.57355 1.16408 6.4798 1.47721 6.52105 1.76971C6.59792 2.30596 6.98792 2.85721 7.67605 3.40471H7.67792ZM7.04417 1.20721C7.10605 1.13971 7.21292 1.06096 7.37417 1.07221C7.4773 1.07783 7.60667 1.16971 7.73042 1.26721C7.88042 1.38346 8.09042 1.38533 8.23855 1.26721C8.3623 1.16971 8.49167 1.07783 8.5948 1.07221C8.75417 1.06096 8.86292 1.13971 8.9248 1.20721C9.04292 1.33471 9.10105 1.53346 9.0748 1.71533C9.01105 2.15408 8.66792 2.62471 8.05667 3.11221C8.03584 3.12863 8.01008 3.13756 7.98355 3.13756C7.95702 3.13756 7.93126 3.12863 7.91042 3.11221C7.29917 2.62471 6.95605 2.15596 6.8923 1.71533C6.86605 1.53346 6.92417 1.33471 7.0423 1.20721H7.04417Z" fill="white"/>
</g>
<defs>
<clipPath id="clip0_463_2387">
<rect width="12" height="12" fill="white"/>
</clipPath>
</defs>
</svg>
