<svg width="16" height="16" viewBox="0 0 16 16" fill="none" xmlns="http://www.w3.org/2000/svg">
<path d="M1.56519 8.29421C1.56519 12.9664 5.79864 14.9106 8.60859 14.8267C11.8826 14.7292 15.4043 12.2449 15.1138 7.78721C14.8408 3.60446 11.2742 1.60766 8.19714 1.63106C4.62084 1.65641 1.56519 4.21286 1.56519 8.29421Z" fill="#F8932A"/>
<path d="M8.43134 13.9875C8.38259 13.9875 8.33189 13.9875 8.28314 13.9856C6.82064 13.9368 5.33474 13.385 4.27784 12.3612C3.14684 11.2653 2.44874 9.8789 2.44484 8.28575C2.43509 4.10105 6.02114 2.5625 8.32799 2.5625H8.34749C11.4733 2.57615 14.1741 4.91225 14.2443 8.2058C14.2755 9.6722 13.6749 11.2244 12.4971 12.3827C11.3992 13.461 9.77879 13.9875 8.43134 13.9875Z" fill="#FCC11A"/>
<path d="M6.04619 3.46941C5.76149 3.22566 4.31264 3.96081 3.29474 5.64366C2.61224 6.77271 2.55374 8.21766 2.98859 8.24106C3.42344 8.26446 3.41759 6.83511 4.36334 5.58516C5.50604 4.08171 6.45764 3.82236 6.04619 3.46941Z" fill="#FEFFFA"/>
<path d="M8.40179 3.38086C8.02154 3.38086 7.42874 5.89441 6.96269 6.20446C6.49664 6.51451 4.08254 6.21811 4.05524 6.55741C4.02794 6.89671 5.84729 8.30851 6.05984 8.82916C6.27239 9.34981 5.14139 11.6801 5.45339 11.9063C5.76344 12.1325 7.71149 10.5081 8.36084 10.5081C9.03749 10.5081 10.7808 12.2417 11.0713 12.0038C11.3775 11.7542 10.3947 9.47656 10.5487 8.95396C10.7047 8.43136 12.8205 7.31596 12.7366 6.80896C12.6528 6.30001 10.1958 6.68221 9.74339 6.25906C9.29099 5.83591 8.81129 3.38086 8.40179 3.38086Z" fill="#F8932A"/>
</svg>
