<svg width="16" height="16" viewBox="0 0 16 16" fill="none" xmlns="http://www.w3.org/2000/svg">
<path d="M6.8001 3.19922H9.2001C9.2001 2.88096 9.07367 2.57573 8.84863 2.35069C8.62358 2.12565 8.31836 1.99922 8.0001 1.99922C7.68184 1.99922 7.37661 2.12565 7.15157 2.35069C6.92653 2.57573 6.8001 2.88096 6.8001 3.19922ZM6.0001 3.19922C6.0001 2.66879 6.21081 2.16008 6.58588 1.78501C6.96096 1.40993 7.46966 1.19922 8.0001 1.19922C8.53053 1.19922 9.03924 1.40993 9.41431 1.78501C9.78938 2.16008 10.0001 2.66879 10.0001 3.19922H14.0001C14.1062 3.19922 14.2079 3.24136 14.2829 3.31638C14.358 3.39139 14.4001 3.49313 14.4001 3.59922C14.4001 3.70531 14.358 3.80705 14.2829 3.88206C14.2079 3.95708 14.1062 3.99922 14.0001 3.99922H13.1569L12.2017 12.2744C12.1342 12.8594 11.854 13.3991 11.4144 13.7909C10.9748 14.1827 10.4065 14.3992 9.8177 14.3992H6.1825C5.59366 14.3992 5.02539 14.1827 4.58581 13.7909C4.14623 13.3991 3.86602 12.8594 3.7985 12.2744L2.8433 3.99922H2.0001C1.89401 3.99922 1.79227 3.95708 1.71726 3.88206C1.64224 3.80705 1.6001 3.70531 1.6001 3.59922C1.6001 3.49313 1.64224 3.39139 1.71726 3.31638C1.79227 3.24136 1.89401 3.19922 2.0001 3.19922H6.0001ZM4.5929 12.1832C4.63804 12.5731 4.82493 12.9329 5.11803 13.1939C5.41113 13.455 5.78998 13.5993 6.1825 13.5992H9.8177C10.2102 13.5993 10.5891 13.455 10.8822 13.1939C11.1753 12.9329 11.3622 12.5731 11.4073 12.1832L12.3513 3.99922H3.6489L4.5929 12.1832ZM6.8001 5.99922C6.90618 5.99922 7.00793 6.04136 7.08294 6.11638C7.15796 6.19139 7.2001 6.29313 7.2001 6.39922V11.1992C7.2001 11.3053 7.15796 11.407 7.08294 11.4821C7.00793 11.5571 6.90618 11.5992 6.8001 11.5992C6.69401 11.5992 6.59227 11.5571 6.51725 11.4821C6.44224 11.407 6.4001 11.3053 6.4001 11.1992V6.39922C6.4001 6.29313 6.44224 6.19139 6.51725 6.11638C6.59227 6.04136 6.69401 5.99922 6.8001 5.99922ZM9.6001 6.39922C9.6001 6.29313 9.55796 6.19139 9.48294 6.11638C9.40793 6.04136 9.30618 5.99922 9.2001 5.99922C9.09401 5.99922 8.99227 6.04136 8.91725 6.11638C8.84224 6.19139 8.8001 6.29313 8.8001 6.39922V11.1992C8.8001 11.3053 8.84224 11.407 8.91725 11.4821C8.99227 11.5571 9.09401 11.5992 9.2001 11.5992C9.30618 11.5992 9.40793 11.5571 9.48294 11.4821C9.55796 11.407 9.6001 11.3053 9.6001 11.1992V6.39922Z" fill="#E55F68"/>
</svg>
