<svg width="10" height="10" viewBox="0 0 10 10" fill="none" xmlns="http://www.w3.org/2000/svg">
<path d="M1.66663 4.58398V6.25065C1.66663 7.62557 1.66663 8.31303 2.09376 8.74019C2.5209 9.16732 3.20836 9.16732 4.58329 9.16732H5.41663C6.79154 9.16732 7.479 9.16732 7.90617 8.74019C8.33329 8.31303 8.33329 7.62557 8.33329 6.25065V4.58398" stroke="white" stroke-width="0.6" stroke-linecap="round" stroke-linejoin="round"/>
<path d="M1.25 3.74935C1.25 3.43781 1.25 3.28204 1.33373 3.16602C1.38859 3.09001 1.46749 3.02689 1.5625 2.983C1.70753 2.91602 1.90224 2.91602 2.29167 2.91602H7.70833C8.09775 2.91602 8.29246 2.91602 8.4375 2.983C8.5325 3.02689 8.61142 3.09001 8.66625 3.16602C8.75 3.28204 8.75 3.43781 8.75 3.74935C8.75 4.06089 8.75 4.21664 8.66625 4.33268C8.61142 4.40868 8.5325 4.47181 8.4375 4.51568C8.29246 4.58268 8.09775 4.58268 7.70833 4.58268H2.29167C1.90224 4.58268 1.70753 4.58268 1.5625 4.51568C1.46749 4.47181 1.38859 4.40868 1.33373 4.33268C1.25 4.21664 1.25 4.06089 1.25 3.74935Z" stroke="white" stroke-width="0.6" stroke-linejoin="round"/>
<path d="M2.5 1.57803C2.5 1.16711 2.83312 0.833984 3.24405 0.833984H3.39286C4.28046 0.833984 5 1.55353 5 2.44113V2.91732H3.83929C3.09962 2.91732 2.5 2.3177 2.5 1.57803Z" stroke="white" stroke-width="0.6" stroke-linejoin="round"/>
<path d="M7.5 1.57803C7.5 1.16711 7.16688 0.833984 6.75596 0.833984H6.60712C5.71954 0.833984 5 1.55353 5 2.44113V2.91732H6.16071C6.90037 2.91732 7.5 2.3177 7.5 1.57803Z" stroke="white" stroke-width="0.6" stroke-linejoin="round"/>
<path d="M5 4.58398V9.16732" stroke="white" stroke-width="0.6" stroke-linecap="round" stroke-linejoin="round"/>
</svg>
