<svg width="24" height="24" viewBox="0 0 24 24" fill="none" xmlns="http://www.w3.org/2000/svg">
<path d="M22 12H2M12 2V22M13 12C13 13.0609 13.4214 14.0783 14.1716 14.8284C14.9217 15.5786 15.9391 16 17 16M11 12C11 13.0609 10.5786 14.0783 9.82843 14.8284C9.07828 15.5786 8.06087 16 7 16" stroke="#8D8D8D" stroke-width="1.5" stroke-linecap="round"/>
<path d="M12 10.0355C12.0006 9.31142 12.2429 8.60828 12.6886 8.03763C13.1342 7.46697 13.7577 7.06147 14.46 6.88547C16.063 6.48547 17.516 7.93747 17.115 9.54147C16.939 10.2438 16.5335 10.8673 15.9629 11.3129C15.3922 11.7586 14.6891 12.0009 13.965 12.0015H12M12 10.0355V12.0015M12 10.0355C11.9994 9.31142 11.7571 8.60828 11.3115 8.03763C10.8658 7.46697 10.2423 7.06147 9.54001 6.88547C7.93701 6.48547 6.48401 7.93747 6.88501 9.54147C7.06101 10.2438 7.46651 10.8673 8.03716 11.3129C8.60782 11.7586 9.31095 12.0009 10.035 12.0015H12" stroke="#8D8D8D" stroke-width="1.5"/>
<path d="M2 12C2 7.286 2 4.929 3.464 3.464C4.93 2 7.286 2 12 2C16.714 2 19.071 2 20.535 3.464C22 4.93 22 7.286 22 12C22 16.714 22 19.071 20.535 20.535C19.072 22 16.714 22 12 22C7.286 22 4.929 22 3.464 20.535C2 19.072 2 16.714 2 12Z" stroke="#8D8D8D" stroke-width="1.5"/>
</svg>
