<svg width="38" height="38" viewBox="0 0 38 38" fill="none" xmlns="http://www.w3.org/2000/svg">
<path d="M4.75 25.3327L11.827 18.2557C12.3646 17.7181 13.0938 17.416 13.8542 17.416C14.6145 17.416 15.3437 17.7181 15.8813 18.2557L22.1667 24.541M22.1667 24.541L24.5417 26.916M22.1667 24.541L25.2854 21.4223C25.8229 20.8848 26.5522 20.5827 27.3125 20.5827C28.0728 20.5827 28.8021 20.8848 29.3396 21.4223L33.25 25.3327" stroke="#141B34" stroke-width="1.5" stroke-linecap="round" stroke-linejoin="round"/>
<path d="M24.5417 12.6673C24.9788 12.6673 25.3333 12.3129 25.3333 11.8757C25.3333 11.4384 24.9788 11.084 24.5417 11.084M24.5417 12.6673C24.1045 12.6673 23.75 12.3129 23.75 11.8757C23.75 11.4384 24.1045 11.084 24.5417 11.084M24.5417 12.6673V11.084" stroke="#141B34" stroke-width="1.5" stroke-linecap="round" stroke-linejoin="round"/>
<path d="M5.85382 31.2651C3.95703 29.0443 3.95703 25.6957 3.95703 18.9987C3.95703 12.3016 3.95703 8.95308 5.85382 6.73223C6.12316 6.41687 6.41687 6.12316 6.73223 5.85382C8.95308 3.95703 12.3016 3.95703 18.9987 3.95703C25.6957 3.95703 29.0443 3.95703 31.2651 5.85382C31.5805 6.12316 31.8742 6.41687 32.1435 6.73223C34.0404 8.95308 34.0404 12.3016 34.0404 18.9987C34.0404 25.6957 34.0404 29.0443 32.1435 31.2651C31.8742 31.5805 31.5805 31.8742 31.2651 32.1435C29.0443 34.0404 25.6957 34.0404 18.9987 34.0404C12.3016 34.0404 8.95308 34.0404 6.73223 32.1435C6.41687 31.8742 6.12316 31.5805 5.85382 31.2651Z" stroke="#141B34" stroke-width="1.5" stroke-linecap="round" stroke-linejoin="round"/>
</svg>
