<svg width="24" height="24" viewBox="0 0 24 24" fill="none" xmlns="http://www.w3.org/2000/svg">
<path d="M18.843 19.5C19.8214 19.4757 20.7515 19.07 21.4347 18.3693C22.118 17.6687 22.5003 16.7287 22.5 15.75V12C22.5 11.6022 22.342 11.2206 22.0607 10.9393C21.7794 10.658 21.3978 10.5 21 10.5H16.5C16.1022 10.5 15.7206 10.658 15.4393 10.9393C15.158 11.2206 15 11.6022 15 12V15.75C14.9998 16.2504 15.0998 16.7457 15.2941 17.2069C15.4883 17.668 15.7729 18.0856 16.131 18.4351C16.4892 18.7845 16.9136 19.0588 17.3794 19.2417C17.8451 19.4246 18.3428 19.5124 18.843 19.5Z" fill="#E55F68"/>
<path d="M18.843 19.5C19.8214 19.4757 20.7515 19.07 21.4347 18.3693C22.118 17.6687 22.5003 16.7287 22.5 15.75V12C22.5 11.6022 22.342 11.2206 22.0607 10.9393C21.7794 10.658 21.3978 10.5 21 10.5H16.5C16.1022 10.5 15.7206 10.658 15.4393 10.9393C15.158 11.2206 15 11.6022 15 12V15.75C14.9998 16.2504 15.0998 16.7457 15.2941 17.2069C15.4883 17.668 15.7729 18.0856 16.131 18.4351C16.4892 18.7845 16.9136 19.0588 17.3794 19.2417C17.8451 19.4246 18.3428 19.5124 18.843 19.5Z" fill="url(#paint0_radial_292_3025)" fill-opacity="0.5"/>
<path d="M5.343 19.5C6.32136 19.4757 7.25146 19.07 7.93473 18.3693C8.618 17.6687 9.0003 16.7287 9 15.75V12C9 11.6022 8.84196 11.2206 8.56066 10.9393C8.27936 10.658 7.89782 10.5 7.5 10.5H3C2.60218 10.5 2.22064 10.658 1.93934 10.9393C1.65804 11.2206 1.5 11.6022 1.5 12V15.75C1.49985 16.2504 1.59984 16.7457 1.79408 17.2069C1.98832 17.668 2.27289 18.0856 2.63102 18.4351C2.98915 18.7845 3.4136 19.0588 3.87936 19.2417C4.34512 19.4246 4.84277 19.5124 5.343 19.5Z" fill="#E55F68"/>
<path d="M5.343 19.5C6.32136 19.4757 7.25146 19.07 7.93473 18.3693C8.618 17.6687 9.0003 16.7287 9 15.75V12C9 11.6022 8.84196 11.2206 8.56066 10.9393C8.27936 10.658 7.89782 10.5 7.5 10.5H3C2.60218 10.5 2.22064 10.658 1.93934 10.9393C1.65804 11.2206 1.5 11.6022 1.5 12V15.75C1.49985 16.2504 1.59984 16.7457 1.79408 17.2069C1.98832 17.668 2.27289 18.0856 2.63102 18.4351C2.98915 18.7845 3.4136 19.0588 3.87936 19.2417C4.34512 19.4246 4.84277 19.5124 5.343 19.5Z" fill="url(#paint1_radial_292_3025)" fill-opacity="0.5"/>
<path d="M7.5 11.9895C7.50277 11.5935 7.66203 11.2147 7.94304 10.9356C8.22404 10.6566 8.60399 10.5 9 10.5H15C15.3978 10.5 15.7794 10.658 16.0607 10.9393C16.342 11.2206 16.5 11.6022 16.5 12V16.5C16.5004 16.9721 16.4265 17.4414 16.281 17.8905C15.9489 18.9086 15.2647 19.7749 14.3513 20.3338C13.4379 20.8928 12.3551 21.1079 11.2974 20.9404C10.2398 20.7729 9.27642 20.2339 8.58042 19.42C7.88442 18.6062 7.50135 17.5709 7.5 16.5V11.9895Z" fill="url(#paint2_linear_292_3025)"/>
<path d="M7.5 11.9895C7.50277 11.5935 7.66203 11.2147 7.94304 10.9356C8.22404 10.6566 8.60399 10.5 9 10.5H15C15.3978 10.5 15.7794 10.658 16.0607 10.9393C16.342 11.2206 16.5 11.6022 16.5 12V16.5C16.5004 16.9721 16.4265 17.4414 16.281 17.8905C15.9489 18.9086 15.2647 19.7749 14.3513 20.3338C13.4379 20.8928 12.3551 21.1079 11.2974 20.9404C10.2398 20.7729 9.27642 20.2339 8.58042 19.42C7.88442 18.6062 7.50135 17.5709 7.5 16.5V11.9895Z" fill="url(#paint3_linear_292_3025)"/>
<path d="M18.75 4.5C18.1533 4.5 17.581 4.73705 17.159 5.15901C16.7371 5.58097 16.5 6.15326 16.5 6.75C16.5 7.34674 16.7371 7.91903 17.159 8.34099C17.581 8.76295 18.1533 9 18.75 9C19.3467 9 19.919 8.76295 20.341 8.34099C20.7629 7.91903 21 7.34674 21 6.75C21 6.15326 20.7629 5.58097 20.341 5.15901C19.919 4.73705 19.3467 4.5 18.75 4.5Z" fill="url(#paint4_linear_292_3025)"/>
<path d="M5.25 4.5C4.65326 4.5 4.08097 4.73705 3.65901 5.15901C3.23705 5.58097 3 6.15326 3 6.75C3 7.34674 3.23705 7.91903 3.65901 8.34099C4.08097 8.76295 4.65326 9 5.25 9C5.84674 9 6.41903 8.76295 6.84099 8.34099C7.26295 7.91903 7.5 7.34674 7.5 6.75C7.5 6.15326 7.26295 5.58097 6.84099 5.15901C6.41903 4.73705 5.84674 4.5 5.25 4.5Z" fill="#E55F68"/>
<path d="M11.9999 3.00391C11.6064 3.00391 11.2166 3.08143 10.853 3.23204C10.4894 3.38265 10.159 3.60341 9.88073 3.88171C9.60243 4.16 9.38168 4.49039 9.23106 4.854C9.08045 5.21762 9.00293 5.60733 9.00293 6.00091C9.00293 6.39448 9.08045 6.7842 9.23106 7.14781C9.38168 7.51142 9.60243 7.84181 9.88073 8.12011C10.159 8.3984 10.4894 8.61916 10.853 8.76977C11.2166 8.92039 11.6064 8.99791 11.9999 8.99791C12.7948 8.99791 13.5571 8.68215 14.1191 8.12011C14.6812 7.55806 14.9969 6.79576 14.9969 6.00091C14.9969 5.20605 14.6812 4.44375 14.1191 3.88171C13.5571 3.31966 12.7948 3.00391 11.9999 3.00391Z" fill="url(#paint5_linear_292_3025)"/>
<defs>
<radialGradient id="paint0_radial_292_3025" cx="0" cy="0" r="1" gradientUnits="userSpaceOnUse" gradientTransform="translate(13.821 14.79) scale(6.03547 12.2874)">
<stop offset="0.433" stop-color="#3B148A"/>
<stop offset="1" stop-color="#3B148A" stop-opacity="0"/>
</radialGradient>
<radialGradient id="paint1_radial_292_3025" cx="0" cy="0" r="1" gradientUnits="userSpaceOnUse" gradientTransform="translate(11.43 14.79) rotate(180) scale(6.67926 13.5981)">
<stop offset="0.433" stop-color="#EF477F"/>
<stop offset="1" stop-color="#3B148A" stop-opacity="0"/>
</radialGradient>
<linearGradient id="paint2_linear_292_3025" x1="9.6405" y1="11.895" x2="15.3075" y2="19.6515" gradientUnits="userSpaceOnUse">
<stop offset="0.125" stop-color="#FF77A4"/>
<stop offset="1" stop-color="#EF477F"/>
</linearGradient>
<linearGradient id="paint3_linear_292_3025" x1="12" y1="9.249" x2="20.5455" y2="22.935" gradientUnits="userSpaceOnUse">
<stop stop-color="#EF477F" stop-opacity="0.08"/>
<stop offset="1" stop-color="#E362F8"/>
</linearGradient>
<linearGradient id="paint4_linear_292_3025" x1="17.5695" y1="5.0985" x2="19.863" y2="8.76" gradientUnits="userSpaceOnUse">
<stop offset="0.125" stop-color="#FF72A1"/>
<stop offset="1" stop-color="#EF477F"/>
</linearGradient>
<linearGradient id="paint5_linear_292_3025" x1="10.4279" y1="3.80041" x2="13.4834" y2="8.67841" gradientUnits="userSpaceOnUse">
<stop offset="0.125" stop-color="#FE0054"/>
<stop offset="1" stop-color="#EF477F"/>
</linearGradient>
</defs>
</svg>
