<svg width="24" height="24" viewBox="0 0 24 24" fill="none" xmlns="http://www.w3.org/2000/svg">
<path d="M9.69667 12.6944L4.42567 11.7844C4.00392 11.6667 3.63025 11.4185 3.35817 11.0755C3.0861 10.7324 2.92958 10.312 2.91104 9.87454C2.8925 9.43707 3.0129 9.00495 3.25497 8.6401C3.49705 8.27524 3.84839 7.99635 4.25867 7.84339L18.3037 2.87539C18.6749 2.74012 19.077 2.71366 19.4628 2.79911C19.8486 2.88455 20.2019 3.07837 20.4813 3.35775C20.7607 3.63714 20.9545 3.99049 21.04 4.37625C21.1254 4.76202 21.0989 5.16416 20.9637 5.53539L15.9957 19.8534C15.8486 20.2783 15.5674 20.644 15.1945 20.8953C14.8216 21.1466 14.3772 21.2699 13.9281 21.2468C13.4791 21.2237 13.0497 21.0553 12.7046 20.767C12.3595 20.4788 12.1173 20.0862 12.0147 19.6484L11.1047 14.1024C11.0064 13.7687 10.8261 13.4649 10.5801 13.219C10.3341 12.973 10.0304 12.7926 9.69667 12.6944Z" stroke="#039855" stroke-width="1.5" stroke-linecap="round" stroke-linejoin="round"/>
</svg>
