<svg width="24" height="24" viewBox="0 0 24 24" fill="none" xmlns="http://www.w3.org/2000/svg">
<path d="M17.6234 1.68164C13.5153 1.68164 12.0059 5.87977 12.0059 5.87977C12.0059 5.87977 10.5172 1.68164 6.38095 1.68164C3.2722 1.68164 -0.271554 4.14539 1.0372 9.74602C2.34595 15.3466 12.0172 22.3235 12.0172 22.3235C12.0172 22.3235 21.6528 15.3466 22.9634 9.74602C24.2722 4.14539 20.9834 1.68164 17.6234 1.68164Z" fill="#F44336"/>
<path d="M5.74723 2.09977C8.97223 2.09977 10.5735 5.56664 11.091 6.97101C11.1641 7.17164 11.4435 7.17727 11.5279 6.98227L12.0004 5.87789C11.3347 3.75164 9.50473 1.68164 6.38098 1.68164C5.08723 1.68164 3.72035 2.10914 2.65723 3.01102C3.5966 2.39414 4.69723 2.09977 5.74723 2.09977ZM17.6235 1.68164C16.6316 1.68164 15.7279 1.89727 15.0229 2.33227C15.5179 2.14102 16.131 2.09977 16.7385 2.09977C19.7779 2.09977 22.4985 4.40414 21.2704 9.73102C20.2166 14.3041 14.0591 19.8523 12.1785 21.9691C12.0585 22.1041 12.0172 22.3216 12.0172 22.3216C12.0172 22.3216 21.6529 15.3448 22.9635 9.74414C24.2722 4.14539 20.9891 1.68164 17.6235 1.68164Z" fill="#CC3333"/>
<path d="M3.19523 4.65391C3.89836 3.77641 5.15461 3.05079 6.21961 3.88704C6.79523 4.33891 6.54398 5.26516 6.02836 5.65516C5.27836 6.22516 4.62586 6.56829 4.16836 7.46079C3.89461 7.99704 3.72961 8.58391 3.64523 9.18204C3.61148 9.41829 3.30211 9.47641 3.18586 9.26829C2.39461 7.86579 2.16961 5.93454 3.19523 4.65391ZM14.4677 6.49891C14.1377 6.49891 13.9052 6.18016 14.0252 5.87266C14.2484 5.30641 14.5371 4.75891 14.884 4.27141C15.3977 3.55141 16.3746 3.13141 16.9934 3.56829C17.6271 4.01454 17.5446 4.90704 17.1002 5.33829C16.1459 6.26266 14.9421 6.49891 14.4677 6.49891Z" fill="#FF8A80"/>
</svg>
