<svg width="24" height="24" viewBox="0 0 24 24" fill="none" xmlns="http://www.w3.org/2000/svg">
<path d="M4.616 21.0009C4.15533 21.0009 3.771 20.8469 3.463 20.5389C3.155 20.2309 3.00067 19.8466 3 19.3859V10.6159C3 10.1559 3.15433 9.7719 3.463 9.4639C3.77167 9.1559 4.15567 9.00156 4.615 9.0009H19.385C19.845 9.0009 20.229 9.15523 20.537 9.4639C20.845 9.77256 20.9993 10.1569 21 10.6169V19.3859C21 19.8459 20.8457 20.2302 20.537 20.5389C20.2283 20.8476 19.8443 21.0016 19.385 21.0009H4.616ZM4.616 20.0009H19.385C19.5383 20.0009 19.6793 19.9369 19.808 19.8089C19.9367 19.6809 20.0007 19.5396 20 19.3849V10.6169C20 10.4629 19.936 10.3216 19.808 10.1929C19.68 10.0642 19.539 10.0002 19.385 10.0009H4.615C4.46167 10.0009 4.32067 10.0649 4.192 10.1929C4.06333 10.3209 3.99933 10.4622 4 10.6169V19.3859C4 19.5392 4.064 19.6802 4.192 19.8089C4.32 19.9376 4.461 20.0016 4.615 20.0009M11.121 17.6489L14.606 15.3289C14.73 15.2422 14.792 15.1329 14.792 15.0009C14.792 14.8689 14.73 14.7592 14.606 14.6719L11.121 12.3529C10.9797 12.2622 10.841 12.2529 10.705 12.3249C10.5683 12.3976 10.5 12.5146 10.5 12.6759V17.3259C10.5 17.4872 10.5683 17.6042 10.705 17.6769C10.8417 17.7496 10.9803 17.7402 11.121 17.6489ZM5 7.2319C4.858 7.2319 4.739 7.18423 4.643 7.0889C4.547 6.99356 4.49933 6.87423 4.5 6.7309C4.50067 6.58756 4.54833 6.46856 4.643 6.3739C4.73767 6.27923 4.85667 6.2319 5 6.2319H19C19.1427 6.2319 19.2617 6.27956 19.357 6.3749C19.4523 6.47023 19.5 6.58923 19.5 6.7319C19.5 6.87456 19.4523 6.99356 19.357 7.0889C19.2617 7.18423 19.1427 7.23156 19 7.2309L5 7.2319ZM8 4.4619C7.858 4.4619 7.739 4.41423 7.643 4.3189C7.547 4.22356 7.49933 4.1049 7.5 3.9629C7.50067 3.8209 7.54833 3.7019 7.643 3.6059C7.73767 3.5099 7.85667 3.46223 8 3.4629H16C16.1427 3.4629 16.2617 3.51056 16.357 3.6059C16.4523 3.70123 16.5 3.82023 16.5 3.9629C16.5 4.10556 16.4523 4.22423 16.357 4.3189C16.2617 4.41356 16.1427 4.46156 16 4.4629L8 4.4619Z" fill="black"/>
</svg>
